<svg width="160" height="111" viewBox="0 0 160 111" fill="none" xmlns="http://www.w3.org/2000/svg">
<path d="M145.28 0.00016656L147 0.00016671C154.18 0.000167338 160 5.82047 160 13.0002L160 98C160 105.18 154.18 111 147 111L92 111L145.28 0.00016656Z" fill="#00E577"/>
<path opacity="0.8" d="M21 74L145.281 0.0001297L92 111L21 74Z" fill="#00E577"/>
<path opacity="0.65" d="M-3.8147e-05 111L21 74L92 111L-3.8147e-05 111Z" fill="#00E577"/>
<path opacity="0.54" d="M63 -3.00814e-05L145.281 -3.05176e-05L21 74L63 -3.00814e-05Z" fill="#00E577"/>
<path opacity="0.4" d="M-0.000305176 111L63 0L10.9996 3.08337e-06L-0.000305176 111Z" fill="#00E577"/>
</svg>
