<svg width="100" height="112" viewBox="0 0 135 150" fill="none" xmlns="http://www.w3.org/2000/svg">
<path d="M0 0H115C126.046 0 135 8.95431 135 20V99.8512C135 107.99 129.539 115.116 121.681 117.232L0 150V0Z" fill="#8D8D8D"/>
<path d="M0 5H115C123.284 5 130 11.7157 130 20V98.4185C130 105.241 125.396 111.204 118.795 112.93L0 144V5Z" fill="#8D8D8D"/>
<path fill-rule="evenodd" clip-rule="evenodd" d="M0 143.955L118.791 112.928C125.394 111.203 130 105.239 130 98.4147V20C130 11.7157 123.284 5 115 5H0V7H115C122.18 7 128 12.8203 128 20V98.4147C128 104.329 124.008 109.498 118.285 110.993L0 141.888V143.955Z" fill="black"/>
<path d="M95.8745 7.00195L0 7.00195L1.85131e-06 49.3549L95.8745 7.00195Z" fill="#8D8D8D"/>
<path opacity="0.8" d="M3.27835e-06 82L95.875 7L1.85131e-06 49.3529L3.27835e-06 82Z" fill="#8D8D8D"/>
<path opacity="0.63" d="M128 61.375L128 20C128 12.8203 122.18 6.99999 115 7L95.875 7L4.90547e-05 82L128 61.375Z" fill="#8D8D8D"/>
<path d="M98.002 93.7468C97.035 93.5062 96.0831 93.1161 95.037 92.6656C94.9366 92.6223 94.8347 92.5781 94.7311 92.5333C93.1471 91.8469 91.1983 91.0024 89.002 91.0024C86.3698 91.0024 84.1734 91.9081 82.3844 92.6457L82.3657 92.6534C80.4762 93.4325 79.0677 94.0024 77.502 94.0024C76.0877 94.0024 74.5939 93.4302 72.5899 92.6414L72.5302 92.6179C70.6957 91.8957 68.4266 91.0024 66.002 91.0024C63.8016 91.0024 61.5968 91.8041 59.7173 92.4875C59.5926 92.5329 59.4694 92.5777 59.3477 92.6217C57.2432 93.3829 55.3902 94.0024 53.5019 94.0024C51.6815 94.0024 50.2876 93.4228 48.6715 92.6836C48.5753 92.6397 48.4776 92.5947 48.3783 92.5489C46.8776 91.8579 45.0201 91.0024 42.7519 91.0024C40.5421 91.0024 38.986 91.8255 37.7418 92.4835C37.5847 92.5666 37.4325 92.6471 37.2847 92.7229C36.378 93.1881 35.4042 93.6345 34.0008 93.8566L34.0007 93.1232C34.0004 91.2913 34.0002 88.6742 34.0001 85.5336C33.9999 79.2524 34 70.8775 34.0003 62.5025L34.0013 39.4713L34.0017 31.8815L34.0018 31.0024H98.002V93.7468Z" stroke="black" stroke-width="4"/>
<path fill-rule="evenodd" clip-rule="evenodd" d="M31 28C28.2386 28 26 30.2386 26 33C26 35.7614 28.2386 38 31 38H34V33H98V38H101C103.761 38 106 35.7614 106 33C106 30.2386 103.761 28 101 28H31Z" fill="black"/>
<rect x="43" y="40.0024" width="32" height="3" fill="black"/>
<rect x="43" y="48.0024" width="24" height="3" fill="black"/>
<rect x="43" y="56.0024" width="32" height="3" fill="black"/>
<rect x="43" y="64" width="14" height="3" fill="black"/>
<rect x="85" y="40.0024" width="4" height="3" fill="black"/>
<rect x="85" y="48.0024" width="4" height="3" fill="black"/>
<rect x="85" y="56.0024" width="4" height="3" fill="black"/>
<rect x="85" y="64.0024" width="4" height="3" fill="black"/>
</svg>
