<svg width="370" height="120" viewBox="0 0 370 120" fill="none" xmlns="http://www.w3.org/2000/svg">
<path d="M30.2903 13.0932C32.4851 5.34674 39.5572 0 47.6086 0H350C361.046 0 370 8.95431 370 20V120H0L30.2903 13.0932Z" fill="#0092E4"/>
<path d="M34.8829 15.8626C36.7284 9.43136 42.6102 5 49.301 5H350C358.284 5 365 11.7157 365 20V120H5L34.8829 15.8626Z" fill="#0092E4"/>
<path d="M49.3014 7H350C357.179 7 363 12.8203 363 20V120H365V20C365 11.7157 358.284 5 350 5H49.3014C42.6102 5 36.7282 9.43184 34.883 15.8636L5.00781 120H7.08849L36.8055 16.4151C38.4046 10.8409 43.5024 7 49.3014 7Z" fill="black"/>
<path d="M59.6511 78.9845L59.0835 78.6413L58.4477 78.8302L49.9437 81.3575L51.8739 71.4107L51.9717 70.9071L51.7405 70.4491C50.3077 67.6106 49.5 64.4018 49.5 61C49.5 49.402 58.902 40 70.5 40C82.098 40 91.5 49.402 91.5 61C91.5 72.598 82.098 82 70.5 82C66.5272 82 62.8163 80.8983 59.6511 78.9845Z" stroke="black" stroke-width="3"/>
<path d="M77.25 55.075C77.25 58.4301 74.5637 62.5 71.25 62.5C67.9363 62.5 65.25 58.4301 65.25 55.075C65.25 51.7199 67.9363 49 71.25 49C74.5637 49 77.25 51.7199 77.25 55.075Z" fill="black"/>
<path d="M65.5833 64.583C61.6713 64.583 58.5 67.7543 58.5 71.6663V79.1038L60.2708 78.6561C62.3668 80.0164 66.2174 81.9372 71.25 81.9372C79.0417 81.9372 84 77.333 84 77.333V71.6663C84 67.7543 80.8287 64.583 76.9167 64.583H65.5833Z" fill="black"/>
<path d="M105.905 73V48.083H110.776V58.9351L119.56 48.083H125.473L117.202 57.978L126.071 73H120.397L113.989 61.6523L110.776 65.5146V73H105.905ZM127.695 61.3789V60.8833V59.5332C127.695 57.0381 127.86 55.1696 128.19 53.9277C128.532 52.6859 129.182 51.575 130.139 50.5952C131.916 48.7723 134.166 47.8665 136.889 47.8779C139.601 47.8779 141.845 48.7837 143.623 50.5952C145.275 52.27 146.101 55.0044 146.101 58.7983V60.5415C146.101 63.367 145.987 65.3153 145.759 66.3862C145.383 68.0155 144.671 69.3826 143.623 70.4878C141.868 72.3107 139.624 73.2165 136.889 73.2051C134.166 73.2051 131.916 72.2993 130.139 70.4878C129.364 69.7131 128.783 68.7218 128.396 67.5142C128.02 66.2951 127.809 65.2982 127.763 64.5234C127.718 63.7373 127.695 62.6891 127.695 61.3789ZM132.565 62.2163C132.565 62.3758 132.571 62.6777 132.583 63.1221C132.594 63.5664 132.611 63.8854 132.634 64.0791C132.657 64.2614 132.685 64.5348 132.719 64.8994C132.753 65.264 132.799 65.5431 132.856 65.7368C132.913 65.9305 132.981 66.1584 133.061 66.4204C133.141 66.6825 133.238 66.8989 133.352 67.0698C133.477 67.2407 133.608 67.4002 133.745 67.5483C134.633 68.437 135.681 68.8757 136.889 68.8643C138.199 68.8643 139.242 68.4256 140.017 67.5483C140.529 66.9673 140.86 66.2096 141.008 65.2754C141.156 64.3298 141.23 62.598 141.23 60.0801C141.23 58.0293 141.15 56.5596 140.991 55.6709C140.831 54.7822 140.507 54.0701 140.017 53.5347C139.242 52.646 138.199 52.2017 136.889 52.2017C135.556 52.2017 134.508 52.646 133.745 53.5347C133.232 54.0929 132.907 54.8848 132.771 55.9102C132.634 56.9242 132.565 58.3483 132.565 60.1826V61.1909V62.2163ZM151.057 73V48.083H155.927V58.2686H164.353V48.083H169.223V73H164.353V62.5752H155.927V73H151.057ZM174.179 60.5415V59.5332C174.179 57.0381 174.344 55.1696 174.675 53.9277C175.017 52.6859 175.666 51.575 176.623 50.5952C178.4 48.7723 180.651 47.8665 183.374 47.8779C184.775 47.8779 186 48.1001 187.048 48.5444C188.107 48.9774 189.184 49.7065 190.278 50.7319L187.048 53.9619C186.376 53.2897 185.778 52.8283 185.253 52.5776C184.729 52.327 184.103 52.2017 183.374 52.2017C182.063 52.2017 181.027 52.6346 180.263 53.5005C179.887 53.922 179.602 54.5259 179.409 55.312C179.215 56.0868 179.107 56.7703 179.084 57.3628C179.061 57.9438 179.05 58.7699 179.05 59.8408V61.1738C179.05 63.1562 179.13 64.5861 179.289 65.4634C179.449 66.3293 179.773 67.0356 180.263 67.5825C181.038 68.4484 182.075 68.8757 183.374 68.8643C184.091 68.8643 184.712 68.7446 185.236 68.5054C185.772 68.2547 186.376 67.7933 187.048 67.1211L190.278 70.334C189.184 71.3594 188.107 72.0942 187.048 72.5386C185.954 72.9829 184.746 73.2051 183.425 73.2051C180.668 73.2051 178.4 72.2993 176.623 70.4878C176.042 69.884 175.575 69.2345 175.222 68.5396C174.88 67.8446 174.635 67.0129 174.487 66.0444C174.35 65.076 174.265 64.2557 174.23 63.5835C174.196 62.9113 174.179 61.8973 174.179 60.5415ZM191.901 48.083H196.977L202.189 60.0801L206.923 48.083H211.965L203.146 68.7959C201.962 71.5986 200.104 73 197.575 73H194.602V68.6592H196.567C197.832 68.6592 198.692 68.1351 199.147 67.0869L199.882 65.3779L191.901 48.083ZM211.093 73V68.6592H211.896C213.138 68.6592 214.112 68.2091 214.819 67.3091C215.525 66.409 215.913 64.8538 215.981 62.6436L216.374 48.083H231.704V73H226.833V52.4238H221.159L220.886 62.8486C220.726 69.6162 218.174 73 213.229 73H211.093ZM237.531 73V48.083H242.402V57.4653H247.324C249.75 57.4653 251.704 58.1888 253.186 59.6357C254.678 61.0827 255.424 62.9512 255.424 65.2412C255.424 67.5199 254.672 69.3826 253.168 70.8296C251.676 72.2765 249.728 73 247.324 73H237.531ZM242.402 68.6592H246.948C248.042 68.6592 248.913 68.3459 249.562 67.7192C250.223 67.0812 250.554 66.2495 250.554 65.2241C250.554 64.1987 250.223 63.3727 249.562 62.7461C248.913 62.1195 248.042 61.8062 246.948 61.8062H242.402V68.6592ZM255.527 52.4238V48.083H273.42V52.4238H266.909V73H262.038V52.4238H255.527ZM272.531 73L281.606 48.083H285.417L294.509 73H289.433L287.963 68.5908H279.111L277.607 73H272.531ZM280.478 64.4893H286.682L283.623 55.4316L280.478 64.4893ZM297.585 73V48.083H302.456V58.2686H310.881V48.083H315.751V73H310.881V62.5752H302.456V73H297.585ZM319.682 52.4238V48.083H337.575V52.4238H331.064V73H326.193V52.4238H319.682Z" fill="black"/>
</svg>
