<svg width="490" height="120" viewBox="0 0 490 120" fill="none" xmlns="http://www.w3.org/2000/svg">
<path opacity="0.35" d="M30.2903 13.0932C32.4851 5.34674 39.5572 0 47.6086 0H470C481.046 0 490 8.95431 490 20V120H0L30.2903 13.0932Z" fill="white"/>
<path d="M34.8829 15.8626C36.7284 9.43136 42.6102 5 49.301 5H470C478.284 5 485 11.7157 485 20V120H5L34.8829 15.8626Z" fill="white"/>
<path d="M49.3014 7H470C477.179 7 483 12.8203 483 20V120H485V20C485 11.7157 478.284 5 470 5H49.3014C42.6102 5 36.7282 9.43184 34.883 15.8636L5.00781 120H7.08849L36.8055 16.4151C38.4046 10.8409 43.5024 7 49.3014 7Z" fill="black"/>
<path d="M483 36.663V120L400.953 120L483 36.663Z" fill="#8D8D8D"/>
<path opacity="0.88" d="M337.709 120L483 36.6626L400.953 120H337.709Z" fill="#8D8D8D"/>
<path opacity="0.77" d="M419.756 7L470 7C477.18 7 483 12.8203 483 20V36.6626L337.709 120L419.756 7Z" fill="#8D8D8D"/>
<path opacity="0.68" d="M336 6.99996L419.756 6.99996L368.477 77.625L336 6.99996Z" fill="#8D8D8D"/>
<path opacity="0.61" d="M336 7L368.5 77.625L337.717 120L295 120L336 7Z" fill="#8D8D8D"/>
<path d="M106.651 78.9845L106.083 78.6413L105.448 78.8302L96.9437 81.3575L98.8739 71.4107L98.9717 70.9071L98.7405 70.4491C97.3077 67.6106 96.5 64.4018 96.5 61C96.5 49.402 105.902 40 117.5 40C129.098 40 138.5 49.402 138.5 61C138.5 72.598 129.098 82 117.5 82C113.527 82 109.816 80.8983 106.651 78.9845Z" stroke="black" stroke-width="3"/>
<path d="M124.25 55.075C124.25 58.4301 121.564 62.5 118.25 62.5C114.936 62.5 112.25 58.4301 112.25 55.075C112.25 51.7199 114.936 49 118.25 49C121.564 49 124.25 51.7199 124.25 55.075Z" fill="black"/>
<path d="M112.583 64.583C108.671 64.583 105.5 67.7543 105.5 71.6663V79.1038L107.271 78.6561C109.367 80.0164 113.217 81.9372 118.25 81.9372C126.042 81.9372 131 77.333 131 77.333V71.6663C131 67.7543 127.829 64.583 123.917 64.583H112.583Z" fill="black"/>
<path d="M152.905 73V48.083H157.776V58.9351L166.56 48.083H172.473L164.202 57.978L173.071 73H167.397L160.989 61.6523L157.776 65.5146V73H152.905ZM174.695 61.3789V60.8833V59.5332C174.695 57.0381 174.86 55.1696 175.19 53.9277C175.532 52.6859 176.182 51.575 177.139 50.5952C178.916 48.7723 181.166 47.8665 183.889 47.8779C186.601 47.8779 188.845 48.7837 190.623 50.5952C192.275 52.27 193.101 55.0044 193.101 58.7983V60.5415C193.101 63.367 192.987 65.3153 192.759 66.3862C192.383 68.0155 191.671 69.3826 190.623 70.4878C188.868 72.3107 186.624 73.2165 183.889 73.2051C181.166 73.2051 178.916 72.2993 177.139 70.4878C176.364 69.7131 175.783 68.7218 175.396 67.5142C175.02 66.2951 174.809 65.2982 174.763 64.5234C174.718 63.7373 174.695 62.6891 174.695 61.3789ZM179.565 62.2163C179.565 62.3758 179.571 62.6777 179.583 63.1221C179.594 63.5664 179.611 63.8854 179.634 64.0791C179.657 64.2614 179.685 64.5348 179.719 64.8994C179.753 65.264 179.799 65.5431 179.856 65.7368C179.913 65.9305 179.981 66.1584 180.061 66.4204C180.141 66.6825 180.238 66.8989 180.352 67.0698C180.477 67.2407 180.608 67.4002 180.745 67.5483C181.633 68.437 182.681 68.8757 183.889 68.8643C185.199 68.8643 186.242 68.4256 187.017 67.5483C187.529 66.9673 187.86 66.2096 188.008 65.2754C188.156 64.3298 188.23 62.598 188.23 60.0801C188.23 58.0293 188.15 56.5596 187.991 55.6709C187.831 54.7822 187.507 54.0701 187.017 53.5347C186.242 52.646 185.199 52.2017 183.889 52.2017C182.556 52.2017 181.508 52.646 180.745 53.5347C180.232 54.0929 179.907 54.8848 179.771 55.9102C179.634 56.9242 179.565 58.3483 179.565 60.1826V61.1909V62.2163ZM198.057 73V48.083H202.927V58.2686H211.353V48.083H216.223V73H211.353V62.5752H202.927V73H198.057ZM221.179 60.5415V59.5332C221.179 57.0381 221.344 55.1696 221.675 53.9277C222.017 52.6859 222.666 51.575 223.623 50.5952C225.4 48.7723 227.651 47.8665 230.374 47.8779C231.775 47.8779 233 48.1001 234.048 48.5444C235.107 48.9774 236.184 49.7065 237.278 50.7319L234.048 53.9619C233.376 53.2897 232.778 52.8283 232.253 52.5776C231.729 52.327 231.103 52.2017 230.374 52.2017C229.063 52.2017 228.027 52.6346 227.263 53.5005C226.887 53.922 226.602 54.5259 226.409 55.312C226.215 56.0868 226.107 56.7703 226.084 57.3628C226.061 57.9438 226.05 58.7699 226.05 59.8408V61.1738C226.05 63.1562 226.13 64.5861 226.289 65.4634C226.449 66.3293 226.773 67.0356 227.263 67.5825C228.038 68.4484 229.075 68.8757 230.374 68.8643C231.091 68.8643 231.712 68.7446 232.236 68.5054C232.772 68.2547 233.376 67.7933 234.048 67.1211L237.278 70.334C236.184 71.3594 235.107 72.0942 234.048 72.5386C232.954 72.9829 231.746 73.2051 230.425 73.2051C227.668 73.2051 225.4 72.2993 223.623 70.4878C223.042 69.884 222.575 69.2345 222.222 68.5396C221.88 67.8446 221.635 67.0129 221.487 66.0444C221.35 65.076 221.265 64.2557 221.23 63.5835C221.196 62.9113 221.179 61.8973 221.179 60.5415ZM238.901 48.083H243.977L249.189 60.0801L253.923 48.083H258.965L250.146 68.7959C248.962 71.5986 247.104 73 244.575 73H241.602V68.6592H243.567C244.832 68.6592 245.692 68.1351 246.147 67.0869L246.882 65.3779L238.901 48.083ZM258.093 73V68.6592H258.896C260.138 68.6592 261.112 68.2091 261.819 67.3091C262.525 66.409 262.913 64.8538 262.981 62.6436L263.374 48.083H278.704V73H273.833V52.4238H268.159L267.886 62.8486C267.726 69.6162 265.174 73 260.229 73H258.093ZM284.531 73V48.083H289.402V57.4653H294.324C296.75 57.4653 298.704 58.1888 300.186 59.6357C301.678 61.0827 302.424 62.9512 302.424 65.2412C302.424 67.5199 301.672 69.3826 300.168 70.8296C298.676 72.2765 296.728 73 294.324 73H284.531ZM289.402 68.6592H293.948C295.042 68.6592 295.913 68.3459 296.562 67.7192C297.223 67.0812 297.554 66.2495 297.554 65.2241C297.554 64.1987 297.223 63.3727 296.562 62.7461C295.913 62.1195 295.042 61.8062 293.948 61.8062H289.402V68.6592ZM302.527 52.4238V48.083H320.42V52.4238H313.909V73H309.038V52.4238H302.527ZM319.531 73L328.606 48.083H332.417L341.509 73H336.433L334.963 68.5908H326.111L324.607 73H319.531ZM327.478 64.4893H333.682L330.623 55.4316L327.478 64.4893ZM344.585 73V48.083H349.456V58.2686H357.881V48.083H362.751V73H357.881V62.5752H349.456V73H344.585ZM366.682 52.4238V48.083H384.575V52.4238H378.064V73H373.193V52.4238H366.682Z" fill="black"/>
</svg>
