<svg width="135" height="150" viewBox="0 0 135 150" fill="none" xmlns="http://www.w3.org/2000/svg">
<path d="M0 0H115C126.046 0 135 8.95431 135 20V99.8512C135 107.99 129.539 115.116 121.681 117.232L0 150V0Z" fill="#8D8D8D"/>
<path d="M0 5H115C123.284 5 130 11.7157 130 20V98.4185C130 105.241 125.396 111.204 118.795 112.93L0 144V5Z" fill="#8D8D8D"/>
<path fill-rule="evenodd" clip-rule="evenodd" d="M0 143.955L118.791 112.928C125.394 111.203 130 105.239 130 98.4147V20C130 11.7157 123.284 5 115 5H0V7H115C122.18 7 128 12.8203 128 20V98.4147C128 104.329 124.008 109.498 118.285 110.993L0 141.888V143.955Z" fill="black"/>
<path d="M95.8745 7.00195L0 7.00195L1.85131e-06 49.3549L95.8745 7.00195Z" fill="#8D8D8D"/>
<path opacity="0.8" d="M3.27835e-06 82L95.875 7L1.85131e-06 49.3529L3.27835e-06 82Z" fill="#8D8D8D"/>
<path opacity="0.63" d="M128 61.375L128 20C128 12.8203 122.18 6.99999 115 7L95.875 7L4.98892e-05 82L128 61.375Z" fill="#8D8D8D"/>
<circle cx="79" cy="75" r="26" stroke="black" stroke-width="4"/>
<path fill-rule="evenodd" clip-rule="evenodd" d="M76.9825 48.0742C76.496 35.2484 65.9448 25 53 25C39.7452 25 29 35.7452 29 49C29 61.9448 39.2484 72.496 52.0742 72.9825C52.025 73.6486 52 74.3214 52 75C52 75.3289 52.0059 75.6564 52.0175 75.9825C37.561 75.4654 26 63.5828 26 49C26 34.0883 38.0883 22 53 22C67.5828 22 79.4654 33.561 79.9825 48.0175C79.6564 48.0059 79.3289 48 79 48C78.3214 48 77.6486 48.025 76.9825 48.0742Z" fill="black"/>
<path d="M101.01 43.8386C99.8945 39.1356 97.5022 34.6738 93.8335 31.0051C90.1648 27.3364 85.703 24.9442 81 23.8284" stroke="black" stroke-width="3"/>
<path d="M102.71 50.0556L96.0682 44.5882L105.727 42L102.71 50.0556Z" fill="black"/>
<path d="M47.8386 97.0104C43.1356 95.8947 38.6738 93.5024 35.0051 89.8337C31.3364 86.165 28.9442 81.7032 27.8284 77.0002" stroke="black" stroke-width="3"/>
<path d="M54.0556 98.7096L48.5882 92.0683L46 101.728L54.0556 98.7096Z" fill="black"/>
<path fill-rule="evenodd" clip-rule="evenodd" d="M70.0305 89.9328V80.5589L75.7646 77.1998V84.5671H81.7402C82.9206 84.5671 83.8528 84.2221 84.5369 83.532C85.2209 82.8419 85.563 81.9195 85.563 80.7646C85.563 79.6098 85.2209 78.6944 84.5369 78.0184C83.8528 77.3424 82.9206 77.0102 81.7402 77.0102H75.7646H64.2305V71.5867H70.0305V59.1328H81.8207C84.5972 59.1328 86.797 59.9003 88.42 61.4354C90.0564 62.9564 90.8746 65.0126 90.8746 67.6039C90.8746 70.5473 89.6674 72.7231 87.253 74.1314C88.192 74.6525 88.9364 75.2018 89.4864 75.7792C90.6935 77.1312 91.2971 78.9057 91.2971 81.1026C91.2971 83.8207 90.4856 85.9754 88.8626 87.5668C87.2396 89.1442 85.0533 89.9328 82.3036 89.9328H70.0305ZM75.7646 71.5867H81.3579C82.5383 71.5867 83.4638 71.2796 84.1345 70.6458C84.8186 70.0121 85.1606 69.146 85.1606 68.0475C85.1606 66.949 84.8186 66.0829 84.1345 65.4491C83.4638 64.8154 82.5383 64.4985 81.3579 64.4985H75.7646V71.5867Z" fill="black"/>
<path d="M56.5997 52.849C59.4442 52.849 61.7553 51.9405 63.533 50.2142C65.3108 48.488 66.1997 46.2166 66.1997 43.4909C66.1997 40.7653 65.3108 38.4939 63.533 36.7676C61.7553 35.0414 59.4442 34.1328 56.5997 34.1328H45.2219V56.3015H41.933V60.1175H45.2219V64.9328H49.7553V60.1175H60.5997V56.3015H49.7553V52.849H56.5997ZM49.7553 38.3122H56.333C58.0219 38.3122 59.2664 38.7664 60.2442 39.675C61.2219 40.5835 61.6664 41.8555 61.6664 43.4001C61.6664 44.9446 61.2219 46.2166 60.2442 47.1251C59.2664 48.0337 57.933 48.488 56.333 48.488H49.7553V38.3122Z" fill="black"/>
<rect x="42" y="48.5" width="9" height="4.3" fill="black"/>
</svg>
