<svg width="820" height="120" viewBox="0 0 820 120" fill="none" xmlns="http://www.w3.org/2000/svg">
<path opacity="0.35" d="M30.2903 13.0932C32.4851 5.34674 39.5572 0 47.6086 0H800C811.046 0 820 8.95431 820 20V120H0L30.2903 13.0932Z" fill="white"/>
<path d="M34.8829 15.8626C36.7284 9.43136 42.6102 5 49.301 5H800C808.284 5 815 11.7157 815 20V120H5L34.8829 15.8626Z" fill="white"/>
<path d="M49.3014 7H800C807.179 7 813 12.8203 813 20V120H815V20C815 11.7157 808.284 5 800 5H49.3014C42.6102 5 36.7282 9.43184 34.883 15.8636L5.00781 120H7.08849L36.8055 16.4151C38.4046 10.8409 43.5024 7 49.3014 7Z" fill="black"/>
<path opacity="0.9" d="M813 36.663V120L716.988 120L813 36.663Z" fill="#FF0303"/>
<path opacity="0.68" d="M642.979 120L813 36.6626L716.988 120H642.979Z" fill="#FF0303"/>
<path opacity="0.58" d="M738.991 7L800 7C807.18 7 813 12.8203 813 20V36.6626L642.979 120L738.991 7Z" fill="#FF0303"/>
<path opacity="0.46" d="M640.98 6.99996L738.992 6.99996L678.985 77.625L640.98 6.99996Z" fill="#FF0303"/>
<path opacity="0.33" d="M640.978 7L679.01 77.625L642.987 120L592.999 120L640.978 7Z" fill="#FF0303"/>
<path d="M309.379 57V32.083H327.546V57H322.675V36.4238H314.25V57H309.379ZM330.605 57L339.68 32.083H343.491L352.583 57H347.507L346.037 52.5908H337.185L335.681 57H330.605ZM338.552 48.4893H344.755L341.696 39.4316L338.552 48.4893ZM352.241 32.083H357.316L362.529 44.0801L367.263 32.083H372.304L363.486 52.7959C362.301 55.5986 360.444 57 357.915 57H354.941V52.6592H356.906C358.171 52.6592 359.031 52.1351 359.487 51.0869L360.222 49.3779L352.241 32.083ZM373.073 53.9238L376.184 50.7622C377.744 52.1636 379.738 52.8643 382.165 52.8643C383.282 52.8643 384.222 52.5737 384.985 51.9927C385.748 51.4116 386.13 50.6426 386.13 49.6855C386.13 48.6146 385.782 47.7772 385.087 47.1733C384.404 46.5581 383.492 46.2505 382.353 46.2505H379.226V42.2686H382.387C383.458 42.2686 384.29 41.9951 384.882 41.4482C385.475 40.9014 385.771 40.1209 385.771 39.1069C385.771 38.1727 385.424 37.4435 384.729 36.9194C384.045 36.3953 383.202 36.1333 382.199 36.1333C380 36.1333 378.251 36.7087 376.953 37.8594L373.945 34.7832C376.144 32.8464 378.969 31.8779 382.421 31.8779C384.757 31.8779 386.711 32.516 388.283 33.792C389.855 35.0566 390.642 36.7144 390.642 38.7651C390.642 41.1919 389.554 42.9749 387.377 44.1143C389.781 45.1852 390.983 47.0765 390.983 49.7881C390.983 52.0098 390.163 53.8042 388.522 55.1714C386.882 56.5272 384.825 57.2051 382.353 57.2051C380.393 57.2051 378.684 56.9715 377.226 56.5044C375.768 56.0259 374.383 55.1657 373.073 53.9238ZM392.778 57L401.853 32.083H405.664L414.755 57H409.68L408.21 52.5908H399.357L397.854 57H392.778ZM400.725 48.4893H406.928L403.869 39.4316L400.725 48.4893ZM414.926 59.5977L424.907 29.4854H429.179L419.199 59.5977H414.926ZM431.11 44.5415V43.5332C431.11 41.0381 431.276 39.1696 431.606 37.9277C431.948 36.6859 432.597 35.575 433.554 34.5952C435.332 32.7723 437.582 31.8665 440.305 31.8779C441.706 31.8779 442.931 32.1001 443.979 32.5444C445.039 32.9774 446.115 33.7065 447.209 34.7319L443.979 37.9619C443.307 37.2897 442.709 36.8283 442.185 36.5776C441.66 36.327 441.034 36.2017 440.305 36.2017C438.994 36.2017 437.958 36.6346 437.194 37.5005C436.818 37.922 436.534 38.5259 436.34 39.312C436.146 40.0868 436.038 40.7703 436.015 41.3628C435.992 41.9438 435.981 42.7699 435.981 43.8408V45.1738C435.981 47.1562 436.061 48.5861 436.22 49.4634C436.38 50.3293 436.704 51.0356 437.194 51.5825C437.969 52.4484 439.006 52.8757 440.305 52.8643C441.022 52.8643 441.643 52.7446 442.167 52.5054C442.703 52.2547 443.307 51.7933 443.979 51.1211L447.209 54.334C446.115 55.3594 445.039 56.0942 443.979 56.5386C442.885 56.9829 441.678 57.2051 440.356 57.2051C437.599 57.2051 435.332 56.2993 433.554 54.4878C432.973 53.884 432.506 53.2345 432.153 52.5396C431.811 51.8446 431.566 51.0129 431.418 50.0444C431.281 49.076 431.196 48.2557 431.162 47.5835C431.127 46.9113 431.11 45.8973 431.11 44.5415ZM449.738 36.4238V32.083H467.631V36.4238H461.12V57H456.25V36.4238H449.738ZM470.109 45.3789V44.8833V43.5332C470.109 41.0381 470.275 39.1696 470.605 37.9277C470.947 36.6859 471.596 35.575 472.553 34.5952C474.331 32.7723 476.581 31.8665 479.304 31.8779C482.015 31.8779 484.26 32.7837 486.037 34.5952C487.689 36.27 488.515 39.0044 488.515 42.7983V44.5415C488.515 47.367 488.401 49.3153 488.173 50.3862C487.797 52.0155 487.085 53.3826 486.037 54.4878C484.283 56.3107 482.038 57.2165 479.304 57.2051C476.581 57.2051 474.331 56.2993 472.553 54.4878C471.778 53.7131 471.197 52.7218 470.81 51.5142C470.434 50.2951 470.223 49.2982 470.178 48.5234C470.132 47.7373 470.109 46.6891 470.109 45.3789ZM474.98 46.2163C474.98 46.3758 474.986 46.6777 474.997 47.1221C475.008 47.5664 475.026 47.8854 475.048 48.0791C475.071 48.2614 475.1 48.5348 475.134 48.8994C475.168 49.264 475.214 49.5431 475.271 49.7368C475.327 49.9305 475.396 50.1584 475.476 50.4204C475.555 50.6825 475.652 50.8989 475.766 51.0698C475.891 51.2407 476.022 51.4002 476.159 51.5483C477.048 52.437 478.096 52.8757 479.304 52.8643C480.614 52.8643 481.656 52.4256 482.431 51.5483C482.944 50.9673 483.274 50.2096 483.422 49.2754C483.57 48.3298 483.645 46.598 483.645 44.0801C483.645 42.0293 483.565 40.5596 483.405 39.6709C483.246 38.7822 482.921 38.0701 482.431 37.5347C481.656 36.646 480.614 36.2017 479.304 36.2017C477.971 36.2017 476.923 36.646 476.159 37.5347C475.646 38.0929 475.322 38.8848 475.185 39.9102C475.048 40.9242 474.98 42.3483 474.98 44.1826V45.1909V46.2163ZM493.471 57V32.083H511.638V57H506.767V36.4238H498.342V57H493.471Z" fill="black"/>
<path d="M313.94 91H311.084V74.172L307.192 77.56V74.452L311.084 71.064H313.94V91ZM332.146 85.456C332.146 87.136 331.614 88.508 330.55 89.572C329.486 90.636 328.104 91.168 326.406 91.168C324.707 91.168 323.316 90.636 322.234 89.572C321.151 88.508 320.61 87.136 320.61 85.456V76.608C320.61 74.928 321.151 73.556 322.234 72.492C323.316 71.428 324.707 70.896 326.406 70.896C328.086 70.896 329.458 71.428 330.522 72.492C331.604 73.556 332.146 74.928 332.146 76.608V85.456ZM329.318 85.372V76.692C329.318 75.7027 329.047 74.9187 328.506 74.34C327.983 73.7427 327.283 73.444 326.406 73.444C325.51 73.444 324.791 73.7427 324.25 74.34C323.727 74.9187 323.466 75.7027 323.466 76.692V85.372C323.466 86.3613 323.727 87.1547 324.25 87.752C324.791 88.3307 325.51 88.62 326.406 88.62C327.283 88.62 327.983 88.3307 328.506 87.752C329.047 87.1547 329.318 86.3613 329.318 85.372ZM354.446 83.944C354.446 86.856 353.923 88.8347 352.878 89.88C352.019 90.7387 350.843 91.168 349.35 91.168C348.547 91.168 347.875 91.0467 347.334 90.804C346.793 90.5613 346.251 90.1413 345.71 89.544V96.74H342.854V76.804H345.654V78.288C346.251 77.672 346.802 77.2427 347.306 77C347.829 76.7573 348.501 76.636 349.322 76.636C351.973 76.636 353.578 77.8587 354.138 80.304C354.343 81.2187 354.446 82.432 354.446 83.944ZM350.918 87.528C351.385 86.8 351.618 85.5867 351.618 83.888C351.618 82.1893 351.385 80.9853 350.918 80.276C350.47 79.548 349.714 79.184 348.65 79.184C347.493 79.184 346.69 79.6413 346.242 80.556C345.887 81.284 345.71 82.432 345.71 84C345.71 85.6427 345.943 86.828 346.41 87.556C346.877 88.2653 347.633 88.62 348.678 88.62C349.723 88.62 350.47 88.256 350.918 87.528ZM368.726 76.804L362.454 93.828C361.782 95.6947 360.466 96.628 358.506 96.628H357.358V94.052H358.086C358.684 94.052 359.122 93.9493 359.402 93.744C359.682 93.5573 359.925 93.1653 360.13 92.568L360.914 90.328L355.93 76.804H358.982L362.37 86.828L365.674 76.804H368.726ZM382.326 83.972C382.326 86.6227 381.757 88.5267 380.618 89.684C379.629 90.6733 378.275 91.168 376.558 91.168C374.15 91.168 372.498 90.16 371.602 88.144C371.061 86.912 370.79 85.0827 370.79 82.656V81.48C370.79 78.8853 370.921 76.9347 371.182 75.628C371.443 74.3213 372.078 73.2573 373.086 72.436C373.59 72.044 374.243 71.7267 375.046 71.484C375.867 71.2227 376.539 71.064 377.062 71.008C377.585 70.9333 378.369 70.868 379.414 70.812C380.459 70.7373 381.029 70.7 381.122 70.7V73.276C380.917 73.2947 380.431 73.3227 379.666 73.36C378.919 73.3973 378.294 73.444 377.79 73.5C377.286 73.5373 376.707 73.6587 376.054 73.864C375.401 74.0507 374.878 74.3027 374.486 74.62C374.318 74.7693 374.159 74.9373 374.01 75.124C373.861 75.3107 373.739 75.488 373.646 75.656C373.553 75.824 373.469 76.0293 373.394 76.272C373.319 76.5147 373.263 76.7107 373.226 76.86C373.189 77.0093 373.151 77.2147 373.114 77.476C373.077 77.7373 373.049 77.9147 373.03 78.008C373.03 78.1013 373.021 78.2693 373.002 78.512C373.002 78.7547 373.002 78.8853 373.002 78.904H373.086C373.422 78.344 373.945 77.8773 374.654 77.504C375.382 77.112 376.157 76.916 376.978 76.916C380.543 76.916 382.326 79.268 382.326 83.972ZM379.498 84.028C379.498 82.2733 379.227 81.0507 378.686 80.36C378.182 79.744 377.463 79.436 376.53 79.436C375.634 79.436 374.925 79.7627 374.402 80.416C373.898 81.088 373.646 82.292 373.646 84.028C373.646 85.8013 373.907 87.0147 374.43 87.668C374.953 88.3027 375.662 88.62 376.558 88.62C378.518 88.62 379.498 87.0893 379.498 84.028ZM394.649 68.992L386.669 93.072H383.953L391.933 68.992H394.649ZM410.97 91H408.114V81.9L404.838 88.396H403.046L399.714 81.9V91H396.858V76.804H399.686L403.942 85.26L408.17 76.804H410.97V91ZM427.322 91H424.466V81.228L418.39 91H415.534V76.804H418.39V86.436L424.466 76.804H427.322V91ZM443.226 91H440.37V84.952H434.714V91H431.858V76.804H434.714V82.46H440.37V76.804H443.226V91Z" fill="black"/>
</svg>
