<svg width="640" height="120" viewBox="0 0 640 120" fill="none" xmlns="http://www.w3.org/2000/svg">
<path d="M30.2903 13.0932C32.4851 5.34674 39.5572 0 47.6086 0H620C631.046 0 640 8.95431 640 20V120H0L30.2903 13.0932Z" fill="#FF0303"/>
<path d="M34.8829 15.8626C36.7284 9.43136 42.6102 5 49.301 5H620C628.284 5 635 11.7157 635 20V120H5L34.8829 15.8626Z" fill="#FF0303"/>
<path d="M49.3014 7H620C627.179 7 633 12.8203 633 20V120H635V20C635 11.7157 628.284 5 620 5H49.3014C42.6102 5 36.7282 9.43184 34.883 15.8636L5.00781 120H7.08849L36.8055 16.4151C38.4046 10.8409 43.5024 7 49.3014 7Z" fill="black"/>
<path opacity="0.9" d="M633 36.663V120L536.988 120L633 36.663Z" fill="#FF0303"/>
<path opacity="0.68" d="M462.979 120L633 36.6626L536.988 120H462.979Z" fill="#FF0303"/>
<path opacity="0.58" d="M558.991 7L620 7C627.18 7 633 12.8203 633 20V36.6626L462.979 120L558.991 7Z" fill="#FF0303"/>
<path opacity="0.46" d="M460.98 6.99996L558.992 6.99996L498.985 77.625L460.98 6.99996Z" fill="#FF0303"/>
<path opacity="0.33" d="M460.978 7L499.01 77.625L462.987 120L412.999 120L460.978 7Z" fill="#FF0303"/>
<path d="M180.379 57V32.083H198.546V57H193.675V36.4238H185.25V57H180.379ZM201.605 57L210.68 32.083H214.491L223.583 57H218.507L217.037 52.5908H208.185L206.681 57H201.605ZM209.552 48.4893H215.755L212.696 39.4316L209.552 48.4893ZM223.241 32.083H228.316L233.529 44.0801L238.263 32.083H243.304L234.486 52.7959C233.301 55.5986 231.444 57 228.915 57H225.941V52.6592H227.906C229.171 52.6592 230.031 52.1351 230.487 51.0869L231.222 49.3779L223.241 32.083ZM244.073 53.9238L247.184 50.7622C248.744 52.1636 250.738 52.8643 253.165 52.8643C254.282 52.8643 255.222 52.5737 255.985 51.9927C256.748 51.4116 257.13 50.6426 257.13 49.6855C257.13 48.6146 256.782 47.7772 256.087 47.1733C255.404 46.5581 254.492 46.2505 253.353 46.2505H250.226V42.2686H253.387C254.458 42.2686 255.29 41.9951 255.882 41.4482C256.475 40.9014 256.771 40.1209 256.771 39.1069C256.771 38.1727 256.424 37.4435 255.729 36.9194C255.045 36.3953 254.202 36.1333 253.199 36.1333C251 36.1333 249.251 36.7087 247.953 37.8594L244.945 34.7832C247.144 32.8464 249.969 31.8779 253.421 31.8779C255.757 31.8779 257.711 32.516 259.283 33.792C260.855 35.0566 261.642 36.7144 261.642 38.7651C261.642 41.1919 260.554 42.9749 258.377 44.1143C260.781 45.1852 261.983 47.0765 261.983 49.7881C261.983 52.0098 261.163 53.8042 259.522 55.1714C257.882 56.5272 255.825 57.2051 253.353 57.2051C251.393 57.2051 249.684 56.9715 248.226 56.5044C246.768 56.0259 245.383 55.1657 244.073 53.9238ZM263.778 57L272.853 32.083H276.664L285.755 57H280.68L279.21 52.5908H270.357L268.854 57H263.778ZM271.725 48.4893H277.928L274.869 39.4316L271.725 48.4893ZM285.926 59.5977L295.907 29.4854H300.179L290.199 59.5977H285.926ZM302.11 44.5415V43.5332C302.11 41.0381 302.276 39.1696 302.606 37.9277C302.948 36.6859 303.597 35.575 304.554 34.5952C306.332 32.7723 308.582 31.8665 311.305 31.8779C312.706 31.8779 313.931 32.1001 314.979 32.5444C316.039 32.9774 317.115 33.7065 318.209 34.7319L314.979 37.9619C314.307 37.2897 313.709 36.8283 313.185 36.5776C312.66 36.327 312.034 36.2017 311.305 36.2017C309.994 36.2017 308.958 36.6346 308.194 37.5005C307.818 37.922 307.534 38.5259 307.34 39.312C307.146 40.0868 307.038 40.7703 307.015 41.3628C306.992 41.9438 306.981 42.7699 306.981 43.8408V45.1738C306.981 47.1562 307.061 48.5861 307.22 49.4634C307.38 50.3293 307.704 51.0356 308.194 51.5825C308.969 52.4484 310.006 52.8757 311.305 52.8643C312.022 52.8643 312.643 52.7446 313.167 52.5054C313.703 52.2547 314.307 51.7933 314.979 51.1211L318.209 54.334C317.115 55.3594 316.039 56.0942 314.979 56.5386C313.885 56.9829 312.678 57.2051 311.356 57.2051C308.599 57.2051 306.332 56.2993 304.554 54.4878C303.973 53.884 303.506 53.2345 303.153 52.5396C302.811 51.8446 302.566 51.0129 302.418 50.0444C302.281 49.076 302.196 48.2557 302.162 47.5835C302.127 46.9113 302.11 45.8973 302.11 44.5415ZM320.738 36.4238V32.083H338.631V36.4238H332.12V57H327.25V36.4238H320.738ZM341.109 45.3789V44.8833V43.5332C341.109 41.0381 341.275 39.1696 341.605 37.9277C341.947 36.6859 342.596 35.575 343.553 34.5952C345.331 32.7723 347.581 31.8665 350.304 31.8779C353.015 31.8779 355.26 32.7837 357.037 34.5952C358.689 36.27 359.515 39.0044 359.515 42.7983V44.5415C359.515 47.367 359.401 49.3153 359.173 50.3862C358.797 52.0155 358.085 53.3826 357.037 54.4878C355.283 56.3107 353.038 57.2165 350.304 57.2051C347.581 57.2051 345.331 56.2993 343.553 54.4878C342.778 53.7131 342.197 52.7218 341.81 51.5142C341.434 50.2951 341.223 49.2982 341.178 48.5234C341.132 47.7373 341.109 46.6891 341.109 45.3789ZM345.98 46.2163C345.98 46.3758 345.986 46.6777 345.997 47.1221C346.008 47.5664 346.026 47.8854 346.048 48.0791C346.071 48.2614 346.1 48.5348 346.134 48.8994C346.168 49.264 346.214 49.5431 346.271 49.7368C346.327 49.9305 346.396 50.1584 346.476 50.4204C346.555 50.6825 346.652 50.8989 346.766 51.0698C346.891 51.2407 347.022 51.4002 347.159 51.5483C348.048 52.437 349.096 52.8757 350.304 52.8643C351.614 52.8643 352.656 52.4256 353.431 51.5483C353.944 50.9673 354.274 50.2096 354.422 49.2754C354.57 48.3298 354.645 46.598 354.645 44.0801C354.645 42.0293 354.565 40.5596 354.405 39.6709C354.246 38.7822 353.921 38.0701 353.431 37.5347C352.656 36.646 351.614 36.2017 350.304 36.2017C348.971 36.2017 347.923 36.646 347.159 37.5347C346.646 38.0929 346.322 38.8848 346.185 39.9102C346.048 40.9242 345.98 42.3483 345.98 44.1826V45.1909V46.2163ZM364.471 57V32.083H382.638V57H377.767V36.4238H369.342V57H364.471Z" fill="black"/>
<path d="M184.94 91H182.084V74.172L178.192 77.56V74.452L182.084 71.064H184.94V91ZM203.146 85.456C203.146 87.136 202.614 88.508 201.55 89.572C200.486 90.636 199.104 91.168 197.406 91.168C195.707 91.168 194.316 90.636 193.234 89.572C192.151 88.508 191.61 87.136 191.61 85.456V76.608C191.61 74.928 192.151 73.556 193.234 72.492C194.316 71.428 195.707 70.896 197.406 70.896C199.086 70.896 200.458 71.428 201.522 72.492C202.604 73.556 203.146 74.928 203.146 76.608V85.456ZM200.318 85.372V76.692C200.318 75.7027 200.047 74.9187 199.506 74.34C198.983 73.7427 198.283 73.444 197.406 73.444C196.51 73.444 195.791 73.7427 195.25 74.34C194.727 74.9187 194.466 75.7027 194.466 76.692V85.372C194.466 86.3613 194.727 87.1547 195.25 87.752C195.791 88.3307 196.51 88.62 197.406 88.62C198.283 88.62 198.983 88.3307 199.506 87.752C200.047 87.1547 200.318 86.3613 200.318 85.372ZM225.446 83.944C225.446 86.856 224.923 88.8347 223.878 89.88C223.019 90.7387 221.843 91.168 220.35 91.168C219.547 91.168 218.875 91.0467 218.334 90.804C217.793 90.5613 217.251 90.1413 216.71 89.544V96.74H213.854V76.804H216.654V78.288C217.251 77.672 217.802 77.2427 218.306 77C218.829 76.7573 219.501 76.636 220.322 76.636C222.973 76.636 224.578 77.8587 225.138 80.304C225.343 81.2187 225.446 82.432 225.446 83.944ZM221.918 87.528C222.385 86.8 222.618 85.5867 222.618 83.888C222.618 82.1893 222.385 80.9853 221.918 80.276C221.47 79.548 220.714 79.184 219.65 79.184C218.493 79.184 217.69 79.6413 217.242 80.556C216.887 81.284 216.71 82.432 216.71 84C216.71 85.6427 216.943 86.828 217.41 87.556C217.877 88.2653 218.633 88.62 219.678 88.62C220.723 88.62 221.47 88.256 221.918 87.528ZM239.726 76.804L233.454 93.828C232.782 95.6947 231.466 96.628 229.506 96.628H228.358V94.052H229.086C229.684 94.052 230.122 93.9493 230.402 93.744C230.682 93.5573 230.925 93.1653 231.13 92.568L231.914 90.328L226.93 76.804H229.982L233.37 86.828L236.674 76.804H239.726ZM253.326 83.972C253.326 86.6227 252.757 88.5267 251.618 89.684C250.629 90.6733 249.275 91.168 247.558 91.168C245.15 91.168 243.498 90.16 242.602 88.144C242.061 86.912 241.79 85.0827 241.79 82.656V81.48C241.79 78.8853 241.921 76.9347 242.182 75.628C242.443 74.3213 243.078 73.2573 244.086 72.436C244.59 72.044 245.243 71.7267 246.046 71.484C246.867 71.2227 247.539 71.064 248.062 71.008C248.585 70.9333 249.369 70.868 250.414 70.812C251.459 70.7373 252.029 70.7 252.122 70.7V73.276C251.917 73.2947 251.431 73.3227 250.666 73.36C249.919 73.3973 249.294 73.444 248.79 73.5C248.286 73.5373 247.707 73.6587 247.054 73.864C246.401 74.0507 245.878 74.3027 245.486 74.62C245.318 74.7693 245.159 74.9373 245.01 75.124C244.861 75.3107 244.739 75.488 244.646 75.656C244.553 75.824 244.469 76.0293 244.394 76.272C244.319 76.5147 244.263 76.7107 244.226 76.86C244.189 77.0093 244.151 77.2147 244.114 77.476C244.077 77.7373 244.049 77.9147 244.03 78.008C244.03 78.1013 244.021 78.2693 244.002 78.512C244.002 78.7547 244.002 78.8853 244.002 78.904H244.086C244.422 78.344 244.945 77.8773 245.654 77.504C246.382 77.112 247.157 76.916 247.978 76.916C251.543 76.916 253.326 79.268 253.326 83.972ZM250.498 84.028C250.498 82.2733 250.227 81.0507 249.686 80.36C249.182 79.744 248.463 79.436 247.53 79.436C246.634 79.436 245.925 79.7627 245.402 80.416C244.898 81.088 244.646 82.292 244.646 84.028C244.646 85.8013 244.907 87.0147 245.43 87.668C245.953 88.3027 246.662 88.62 247.558 88.62C249.518 88.62 250.498 87.0893 250.498 84.028ZM265.649 68.992L257.669 93.072H254.953L262.933 68.992H265.649ZM281.97 91H279.114V81.9L275.838 88.396H274.046L270.714 81.9V91H267.858V76.804H270.686L274.942 85.26L279.17 76.804H281.97V91ZM298.322 91H295.466V81.228L289.39 91H286.534V76.804H289.39V86.436L295.466 76.804H298.322V91ZM314.226 91H311.37V84.952H305.714V91H302.858V76.804H305.714V82.46H311.37V76.804H314.226V91Z" fill="black"/>
</svg>
