<svg width="100" height="112" viewBox="0 0 100 112" fill="none" xmlns="http://www.w3.org/2000/svg">
<path opacity="0.35" d="M0 0H85C93.2843 0 100 6.71573 100 15V75.0445C100 80.9191 96.0602 86.0637 90.3887 87.5951L0 112V0Z" fill="white"/>
<path d="M0 4H85C91.0751 4 96 8.92487 96 15V75.1133C96 79.1777 93.2759 82.7378 89.3527 83.8003L0 108V4Z" fill="white"/>
<path d="M85 5C90.5229 5 95 9.47715 95 15V75.1133C95 78.7261 92.5785 81.8906 89.0913 82.8351L0 107V108L89.3527 83.8003C93.2759 82.7378 96 79.1777 96 75.1133V15C96 8.92487 91.0751 4 85 4H0V5H85Z" fill="black"/>
<path d="M71.1567 5.00195L0 5.00195L1.40699e-06 37.1902L71.1567 5.00195Z" fill="#767676"/>
<path opacity="0.8" d="M2.49155e-06 62L71.1571 5L1.40699e-06 37.1882L2.49155e-06 62Z" fill="#767676"/>
<path opacity="0.63" d="M95 46.325L95 15C95 9.47716 90.5228 5 85 5L71.1571 5L2.49155e-06 62L95 46.325Z" fill="#767676"/>
<path fill-rule="evenodd" clip-rule="evenodd" d="M58.9867 73.9204C68.8837 73.9204 76.9067 65.8974 76.9067 56.0004C76.9067 46.1035 68.8837 38.0804 58.9867 38.0804C49.0898 38.0804 41.0667 46.1035 41.0667 56.0004C41.0667 65.8974 49.0898 73.9204 58.9867 73.9204ZM58.9867 76.9071C70.5332 76.9071 79.8934 67.5468 79.8934 56.0004C79.8934 44.454 70.5332 35.0938 58.9867 35.0938C47.4403 35.0938 38.0801 44.454 38.0801 56.0004C38.0801 67.5468 47.4403 76.9071 58.9867 76.9071Z" fill="black"/>
<path fill-rule="evenodd" clip-rule="evenodd" d="M57.48 35.8955C57.1168 26.3189 49.2386 18.6668 39.5731 18.6668C29.6761 18.6668 21.6531 26.6898 21.6531 36.5868C21.6531 46.2522 29.3053 54.1305 38.8819 54.4937C38.8451 54.991 38.8264 55.4934 38.8264 56.0001C38.8264 56.2457 38.8308 56.4902 38.8395 56.7337C28.0453 56.3476 19.4131 47.4752 19.4131 36.5868C19.4131 25.4527 28.439 16.4268 39.5731 16.4268C50.4616 16.4268 59.3339 25.0589 59.72 35.8532C59.4765 35.8445 59.232 35.8401 58.9864 35.8401C58.4797 35.8401 57.9773 35.8588 57.48 35.8955Z" fill="black"/>
<path fill-rule="evenodd" clip-rule="evenodd" d="M69.2699 23.9427C66.6816 21.3543 63.5364 19.6684 60.221 18.8819L60.7381 16.7024C64.4458 17.582 67.9636 19.4685 70.8539 22.3587C73.7441 25.249 75.6306 28.7668 76.5102 32.4745L74.3307 32.9916C73.5442 29.6762 71.8583 26.531 69.2699 23.9427Z" fill="black"/>
<path d="M76.69 37.3752L71.7311 33.2929L78.9434 31.3604L76.69 37.3752Z" fill="black"/>
<path fill-rule="evenodd" clip-rule="evenodd" d="M26.929 66.2841C24.3406 63.6957 22.6548 60.5506 21.8682 57.2352L19.6887 57.7522C20.5683 61.46 22.4548 64.9778 25.3451 67.868C28.2353 70.7583 31.7531 72.6448 35.4609 73.5244L35.9779 71.3449C32.6625 70.5583 29.5174 68.8725 26.929 66.2841Z" fill="black"/>
<path d="M40.3615 73.7032L36.2792 68.7443L34.3467 75.9565L40.3615 73.7032Z" fill="black"/>
<path fill-rule="evenodd" clip-rule="evenodd" d="M52.2887 67.1502V60.151L56.5702 57.6428V63.1438H61.032C61.9133 63.1438 62.6093 62.8861 63.1201 62.3709C63.6309 61.8556 63.8863 61.1669 63.8863 60.3046C63.8863 59.4423 63.6309 58.7588 63.1201 58.2541C62.6093 57.7493 61.9133 57.5013 61.032 57.5013H56.5702H47.958V53.4518H52.2887V44.1528H61.092C63.1652 44.1528 64.8077 44.7259 66.0195 45.8721C67.2414 47.0078 67.8523 48.543 67.8523 50.4779C67.8523 52.6756 66.9509 54.3003 65.1482 55.3518C65.8493 55.7409 66.4051 56.151 66.8157 56.5821C67.7171 57.5916 68.1678 58.9166 68.1678 60.557C68.1678 62.5865 67.5619 64.1953 66.35 65.3836C65.1382 66.5613 63.5057 67.1502 61.4526 67.1502H52.2887ZM56.5702 53.4518H60.7465C61.6279 53.4518 62.3189 53.2224 62.8197 52.7492C63.3304 52.276 63.5858 51.6293 63.5858 50.8091C63.5858 49.9889 63.3304 49.3422 62.8197 48.869C62.3189 48.3958 61.6279 48.1592 60.7465 48.1592H56.5702V53.4518Z" fill="black"/>
<path d="M42.2607 39.4616C44.3845 39.4616 46.1102 38.7832 47.4376 37.4943C48.765 36.2053 49.4287 34.5094 49.4287 32.4742C49.4287 30.439 48.765 28.7431 47.4376 27.4541C46.1102 26.1652 44.3845 25.4868 42.2607 25.4868H33.7653V42.0395H31.3096V44.8887H33.7653V48.4841H37.1502V44.8887H45.2473V42.0395H37.1502V39.4616H42.2607ZM37.1502 28.6074H42.0616C43.3226 28.6074 44.2518 28.9466 44.9819 29.625C45.7119 30.3034 46.0438 31.2531 46.0438 32.4064C46.0438 33.5596 45.7119 34.5094 44.9819 35.1878C44.2518 35.8661 43.2562 36.2053 42.0616 36.2053H37.1502V28.6074Z" fill="black"/>
<path d="M31.3594 36.2144H38.0794V39.425H31.3594V36.2144Z" fill="black"/>
</svg>
