<svg width="615" height="90" viewBox="0 0 615 90" fill="none" xmlns="http://www.w3.org/2000/svg">
<path d="M23.2868 9.39197C24.8937 3.82933 29.9859 0 35.776 0H600C608.284 0 615 6.71573 615 15V90H0L23.2868 9.39197Z" fill="#FF0303"/>
<path d="M26.6949 11.9294C28.0606 7.23139 32.3652 4 37.2577 4H600C606.075 4 611 8.92487 611 15V90H4L26.6949 11.9294Z" fill="#FF0303"/>
<path d="M37.2577 5H600C605.523 5 610 9.47715 610 15V90H611V15C611 8.92487 606.075 4 600 4H37.2577C32.3652 4 28.0606 7.23139 26.6949 11.9294L4 90H5L27.6552 12.2086C28.8967 7.93762 32.8099 5 37.2577 5Z" fill="black"/>
<path opacity="0.9" d="M610 27.3129V90L537.991 90L610 27.3129Z" fill="#FF0303"/>
<path opacity="0.68" d="M482.484 90L610 27.3126L537.991 90H482.484Z" fill="#FF0303"/>
<path opacity="0.58" d="M554.493 5.00003H600C605.523 5.00003 610 9.47718 610 15V27.3126L482.484 90L554.493 5.00003Z" fill="#FF0303"/>
<path opacity="0.46" d="M480.985 4.99999L554.494 4.99999L509.489 58.125L480.985 4.99999Z" fill="#FF0303"/>
<path opacity="0.33" d="M480.984 5.00003L509.508 58.125L482.491 90L445 90L480.984 5.00003Z" fill="#FF0303"/>
<path d="M230.241 43V23.7783H244.255V43H240.498V27.127H233.999V43H230.241ZM246.615 43L253.616 23.7783H256.556L263.569 43H259.654L258.52 39.5986H251.691L250.531 43H246.615ZM252.746 36.4346H257.531L255.171 29.4473L252.746 36.4346ZM263.306 23.7783H267.221L271.242 33.0332L274.894 23.7783H278.783L271.98 39.7568C271.066 41.9189 269.634 43 267.683 43H265.389V39.6514H266.905C267.88 39.6514 268.544 39.2471 268.896 38.4385L269.462 37.1201L263.306 23.7783ZM279.376 40.627L281.776 38.188C282.98 39.269 284.518 39.8096 286.39 39.8096C287.251 39.8096 287.977 39.5854 288.565 39.1372C289.154 38.689 289.449 38.0957 289.449 37.3574C289.449 36.5312 289.181 35.8853 288.645 35.4194C288.117 34.9448 287.414 34.7075 286.535 34.7075H284.123V31.6357H286.562C287.388 31.6357 288.029 31.4248 288.486 31.0029C288.943 30.5811 289.172 29.979 289.172 29.1968C289.172 28.4761 288.904 27.9136 288.368 27.5093C287.84 27.105 287.19 26.9028 286.417 26.9028C284.72 26.9028 283.371 27.3467 282.369 28.2344L280.049 25.8613C281.745 24.3672 283.925 23.6201 286.588 23.6201C288.39 23.6201 289.897 24.1123 291.11 25.0967C292.323 26.0723 292.929 27.3511 292.929 28.9331C292.929 30.8052 292.09 32.1807 290.411 33.0596C292.266 33.8857 293.193 35.3447 293.193 37.4365C293.193 39.1504 292.56 40.5347 291.294 41.5894C290.029 42.6353 288.442 43.1582 286.535 43.1582C285.023 43.1582 283.705 42.978 282.58 42.6177C281.455 42.2485 280.387 41.585 279.376 40.627ZM294.577 43L301.578 23.7783H304.518L311.531 43H307.616L306.482 39.5986H299.653L298.493 43H294.577ZM300.708 36.4346H305.493L303.133 29.4473L300.708 36.4346ZM311.663 45.0039L319.362 21.7744H322.658L314.959 45.0039H311.663ZM324.148 33.3892V32.6113C324.148 30.6865 324.275 29.2451 324.53 28.2871C324.794 27.3291 325.295 26.4722 326.033 25.7163C327.404 24.3101 329.14 23.6113 331.241 23.6201C332.322 23.6201 333.267 23.7915 334.075 24.1343C334.893 24.4683 335.723 25.0308 336.567 25.8218L334.075 28.3135C333.557 27.7949 333.095 27.439 332.691 27.2456C332.287 27.0522 331.803 26.9556 331.241 26.9556C330.23 26.9556 329.43 27.2896 328.841 27.9575C328.551 28.2827 328.332 28.7485 328.182 29.355C328.033 29.9526 327.949 30.48 327.932 30.937C327.914 31.3853 327.905 32.0225 327.905 32.8486V33.877C327.905 35.4062 327.967 36.5093 328.09 37.186C328.213 37.854 328.463 38.3989 328.841 38.8208C329.439 39.4888 330.239 39.8184 331.241 39.8096C331.794 39.8096 332.273 39.7173 332.678 39.5327C333.091 39.3394 333.557 38.9834 334.075 38.4648L336.567 40.9434C335.723 41.7344 334.893 42.3013 334.075 42.644C333.231 42.9868 332.3 43.1582 331.28 43.1582C329.153 43.1582 327.404 42.4595 326.033 41.062C325.585 40.5962 325.225 40.0952 324.952 39.5591C324.688 39.0229 324.5 38.3813 324.385 37.6343C324.28 36.8872 324.214 36.2544 324.188 35.7358C324.161 35.2173 324.148 34.4351 324.148 33.3892ZM338.518 27.127V23.7783H352.321V27.127H347.298V43H343.541V27.127H338.518ZM354.233 34.0352V33.6528V32.6113C354.233 30.6865 354.36 29.2451 354.615 28.2871C354.879 27.3291 355.38 26.4722 356.118 25.7163C357.489 24.3101 359.225 23.6113 361.326 23.6201C363.417 23.6201 365.149 24.3188 366.52 25.7163C367.794 27.0083 368.432 29.1177 368.432 32.0444V33.3892C368.432 35.5688 368.344 37.0718 368.168 37.8979C367.878 39.1548 367.329 40.2095 366.52 41.062C365.167 42.4683 363.435 43.167 361.326 43.1582C359.225 43.1582 357.489 42.4595 356.118 41.062C355.521 40.4644 355.072 39.6997 354.773 38.7681C354.483 37.8276 354.321 37.0586 354.286 36.4609C354.25 35.8545 354.233 35.0459 354.233 34.0352ZM357.99 34.6812C357.99 34.8042 357.995 35.0371 358.003 35.3799C358.012 35.7227 358.025 35.9688 358.043 36.1182C358.061 36.2588 358.083 36.4697 358.109 36.751C358.135 37.0322 358.17 37.2476 358.214 37.397C358.258 37.5464 358.311 37.7222 358.373 37.9243C358.434 38.1265 358.509 38.2935 358.597 38.4253C358.693 38.5571 358.794 38.6802 358.9 38.7944C359.585 39.48 360.394 39.8184 361.326 39.8096C362.336 39.8096 363.141 39.4712 363.738 38.7944C364.134 38.3462 364.389 37.7617 364.503 37.041C364.617 36.3115 364.674 34.9756 364.674 33.0332C364.674 31.4512 364.613 30.3174 364.49 29.6318C364.367 28.9463 364.116 28.397 363.738 27.9839C363.141 27.2983 362.336 26.9556 361.326 26.9556C360.297 26.9556 359.489 27.2983 358.9 27.9839C358.504 28.4146 358.254 29.0254 358.148 29.8164C358.043 30.5986 357.99 31.6973 357.99 33.1123V33.8901V34.6812ZM372.255 43V23.7783H386.269V43H382.512V27.127H376.012V43H372.255Z" fill="black"/>
<path d="M230.625 57.1821V55.4595L233.414 53.0498H234.932V68H233.414V54.7314L230.625 57.1821ZM240.356 64.0112V57.0386C240.356 55.8354 240.735 54.8511 241.494 54.0854C242.26 53.313 243.244 52.9268 244.447 52.9268C245.657 52.9268 246.642 53.313 247.4 54.0854C248.166 54.8511 248.549 55.8354 248.549 57.0386V64.0112C248.549 65.2144 248.166 66.2021 247.4 66.9746C246.642 67.7402 245.657 68.123 244.447 68.123C243.244 68.123 242.26 67.7402 241.494 66.9746C240.735 66.2021 240.356 65.2144 240.356 64.0112ZM241.874 63.9292C241.874 64.7974 242.106 65.4912 242.571 66.0107C243.042 66.5234 243.668 66.7798 244.447 66.7798C245.233 66.7798 245.859 66.5234 246.324 66.0107C246.795 65.4912 247.031 64.7974 247.031 63.9292V57.1206C247.031 56.2524 246.795 55.562 246.324 55.0493C245.859 54.5298 245.233 54.27 244.447 54.27C243.668 54.27 243.042 54.5298 242.571 55.0493C242.106 55.562 241.874 56.2524 241.874 57.1206V63.9292ZM257.06 72.6245V57.6641H258.577V58.8843C258.98 58.4058 259.37 58.0708 259.746 57.8794C260.197 57.6538 260.751 57.541 261.407 57.541C262.74 57.541 263.718 57.9683 264.34 58.8228C264.962 59.6772 265.273 61.0205 265.273 62.8525C265.273 64.6436 264.962 65.9697 264.34 66.8311C263.718 67.6924 262.747 68.123 261.428 68.123C260.785 68.123 260.235 68.0137 259.777 67.7949C259.401 67.6104 259.001 67.272 258.577 66.7798V72.6245H257.06ZM258.577 62.832C258.577 64.2197 258.782 65.2246 259.192 65.8467C259.609 66.4688 260.272 66.7798 261.182 66.7798C262.091 66.7798 262.747 66.4688 263.15 65.8467C263.561 65.2246 263.766 64.2266 263.766 62.8525C263.766 61.4375 263.561 60.4224 263.15 59.8071C262.747 59.1919 262.084 58.8843 261.161 58.8843C260.266 58.8843 259.609 59.1987 259.192 59.8276C258.782 60.4565 258.577 61.458 258.577 62.832ZM266.585 57.6641H268.216L271.056 65.9595L273.866 57.6641H275.506L270.8 70.502C270.321 71.7871 269.405 72.4297 268.052 72.4297H267.396V71.0864H267.857C268.349 71.0864 268.711 71.001 268.944 70.8301C269.176 70.666 269.381 70.3242 269.559 69.8047L270.297 67.7949L266.585 57.6641ZM277.28 60.8018C277.28 58.9561 277.366 57.5684 277.537 56.6387C277.714 55.7021 278.138 54.9263 278.808 54.311C279.17 53.9761 279.642 53.7061 280.223 53.501C280.804 53.2959 281.3 53.166 281.71 53.1113C282.127 53.0566 282.691 53.0088 283.402 52.9678C284.12 52.9199 284.564 52.8892 284.735 52.8755V54.27C284.667 54.2837 284.174 54.3145 283.258 54.3623C282.349 54.4102 281.607 54.5093 281.033 54.6597C280.459 54.8032 279.991 55.0425 279.628 55.3774C279.458 55.5347 279.307 55.709 279.177 55.9004C279.054 56.085 278.955 56.2935 278.88 56.5259C278.805 56.7583 278.743 56.9668 278.695 57.1514C278.647 57.3291 278.606 57.5513 278.572 57.8179L278.511 58.4126C278.497 58.5425 278.487 58.7305 278.48 58.9766C278.473 59.2227 278.47 59.3594 278.47 59.3867H278.531C278.771 58.8945 279.184 58.5015 279.772 58.2075C280.36 57.9067 280.955 57.7563 281.556 57.7563C282.875 57.7563 283.867 58.2007 284.53 59.0894C285.193 59.978 285.524 61.2393 285.524 62.873C285.524 64.7939 285.121 66.168 284.314 66.9951C283.59 67.7539 282.623 68.1299 281.413 68.123C280.476 68.123 279.683 67.8804 279.034 67.395C278.391 66.9028 277.937 66.2158 277.67 65.334C277.41 64.4932 277.28 62.9824 277.28 60.8018ZM278.788 62.9141C278.788 63.7412 278.842 64.3838 278.952 64.8418C279.068 65.293 279.266 65.6724 279.546 65.98C280.011 66.5132 280.633 66.7798 281.413 66.7798C282.185 66.7798 282.8 66.5132 283.258 65.98C283.764 65.4331 284.017 64.4248 284.017 62.9551C284.017 62.1143 283.959 61.4683 283.843 61.0171C283.733 60.5591 283.539 60.1763 283.258 59.8687C282.78 59.3491 282.165 59.0928 281.413 59.0996C280.64 59.0996 280.018 59.356 279.546 59.8687C279.041 60.4155 278.788 61.4307 278.788 62.9141ZM286.878 69.5586L292.866 51.4912H294.353L288.365 69.5586H286.878ZM296.25 68V57.6641H297.747L301.254 64.6162L304.72 57.6641H306.207V68H304.699V60.6479L301.818 66.3594H300.659L297.747 60.6479V68H296.25ZM310.031 68V57.6641H311.528V65.6313L316.84 57.6641H318.347V68H316.84V60.002L311.528 68H310.031ZM322.151 68V57.6641H323.648V62.0117H328.642V57.6641H330.16V68H328.642V63.314H323.648V68H322.151Z" fill="black"/>
</svg>
