<svg width="368" height="90" viewBox="0 0 368 90" fill="none" xmlns="http://www.w3.org/2000/svg">
<path d="M23.2868 9.39197C24.8937 3.82933 29.9859 0 35.776 0H353C361.284 0 368 6.71573 368 15V90H0L23.2868 9.39197Z" fill="#0092E4"/>
<path d="M26.6949 11.9294C28.0606 7.23139 32.3652 4 37.2577 4H353C359.075 4 364 8.92487 364 15V90H4L26.6949 11.9294Z" fill="#0092E4"/>
<path d="M37.2577 5H353C358.523 5 363 9.47715 363 15V90H364V15C364 8.92487 359.075 4 353 4H37.2577C32.3652 4 28.0606 7.23139 26.6949 11.9294L4 90H5L27.6552 12.2086C28.8967 7.93762 32.8099 5 37.2577 5Z" fill="black"/>
<path fill-rule="evenodd" clip-rule="evenodd" d="M70.8144 52.65L69 62L77.2167 59.5581C79.7801 61.108 82.7859 62 86 62C95.3888 62 103 54.3888 103 45C103 35.6112 95.3888 28 86 28C76.6112 28 69 35.6112 69 45C69 47.7516 69.6537 50.3506 70.8144 52.65ZM71.9372 58.7625L77.5317 57.0998L78.3894 57.6184C80.609 58.9605 83.2108 59.7333 86 59.7333C94.137 59.7333 100.733 53.137 100.733 45C100.733 36.863 94.137 30.2667 86 30.2667C77.863 30.2667 71.2667 36.863 71.2667 45C71.2667 47.3888 71.8335 49.6387 72.8379 51.6286L73.1872 52.3207L71.9372 58.7625Z" fill="black"/>
<path d="M91.0999 40.5226C91.0999 43.0576 89.0702 46.1326 86.5665 46.1326C84.0628 46.1326 82.0332 43.0576 82.0332 40.5226C82.0332 37.9876 84.0628 35.9326 86.5665 35.9326C89.0702 35.9326 91.0999 37.9876 91.0999 40.5226Z" fill="black"/>
<path d="M82.2854 47.7061C79.3297 47.7061 76.9336 50.1021 76.9336 53.0579V58.6774L78.2716 58.3391C79.8552 59.3668 82.7645 60.8181 86.5669 60.8181C92.454 60.8181 96.2003 57.3394 96.2003 57.3394V53.0579C96.2003 50.1021 93.8042 47.7061 90.8484 47.7061H82.2854Z" fill="black"/>
<path d="M113.241 54.5V35.2783H116.999V43.6499L123.775 35.2783H128.336L121.956 42.9116L128.798 54.5H124.421L119.477 45.7461L116.999 48.7256V54.5H113.241ZM130.05 45.5352V45.1528V44.1113C130.05 42.1865 130.178 40.7451 130.433 39.7871C130.696 38.8291 131.197 37.9722 131.936 37.2163C133.307 35.8101 135.042 35.1113 137.143 35.1201C139.235 35.1201 140.966 35.8188 142.337 37.2163C143.612 38.5083 144.249 40.6177 144.249 43.5444V44.8892C144.249 47.0688 144.161 48.5718 143.985 49.3979C143.695 50.6548 143.146 51.7095 142.337 52.562C140.984 53.9683 139.252 54.667 137.143 54.6582C135.042 54.6582 133.307 53.9595 131.936 52.562C131.338 51.9644 130.89 51.1997 130.591 50.2681C130.301 49.3276 130.138 48.5586 130.103 47.9609C130.068 47.3545 130.05 46.5459 130.05 45.5352ZM133.808 46.1812C133.808 46.3042 133.812 46.5371 133.821 46.8799C133.83 47.2227 133.843 47.4688 133.86 47.6182C133.878 47.7588 133.9 47.9697 133.926 48.251C133.953 48.5322 133.988 48.7476 134.032 48.897C134.076 49.0464 134.128 49.2222 134.19 49.4243C134.251 49.6265 134.326 49.7935 134.414 49.9253C134.511 50.0571 134.612 50.1802 134.717 50.2944C135.403 50.98 136.211 51.3184 137.143 51.3096C138.154 51.3096 138.958 50.9712 139.556 50.2944C139.951 49.8462 140.206 49.2617 140.32 48.541C140.435 47.8115 140.492 46.4756 140.492 44.5332C140.492 42.9512 140.43 41.8174 140.307 41.1318C140.184 40.4463 139.934 39.897 139.556 39.4839C138.958 38.7983 138.154 38.4556 137.143 38.4556C136.115 38.4556 135.306 38.7983 134.717 39.4839C134.322 39.9146 134.071 40.5254 133.966 41.3164C133.86 42.0986 133.808 43.1973 133.808 44.6123V45.3901V46.1812ZM148.072 54.5V35.2783H151.83V43.1357H158.329V35.2783H162.086V54.5H158.329V46.458H151.83V54.5H148.072ZM165.91 44.8892V44.1113C165.91 42.1865 166.037 40.7451 166.292 39.7871C166.556 38.8291 167.057 37.9722 167.795 37.2163C169.166 35.8101 170.902 35.1113 173.002 35.1201C174.083 35.1201 175.028 35.2915 175.837 35.6343C176.654 35.9683 177.485 36.5308 178.329 37.3218L175.837 39.8135C175.318 39.2949 174.857 38.939 174.453 38.7456C174.048 38.5522 173.565 38.4556 173.002 38.4556C171.992 38.4556 171.192 38.7896 170.603 39.4575C170.313 39.7827 170.093 40.2485 169.944 40.855C169.794 41.4526 169.711 41.98 169.693 42.437C169.676 42.8853 169.667 43.5225 169.667 44.3486V45.377C169.667 46.9062 169.729 48.0093 169.852 48.686C169.975 49.354 170.225 49.8989 170.603 50.3208C171.201 50.9888 172 51.3184 173.002 51.3096C173.556 51.3096 174.035 51.2173 174.439 51.0327C174.853 50.8394 175.318 50.4834 175.837 49.9648L178.329 52.4434C177.485 53.2344 176.654 53.8013 175.837 54.144C174.993 54.4868 174.062 54.6582 173.042 54.6582C170.915 54.6582 169.166 53.9595 167.795 52.562C167.347 52.0962 166.986 51.5952 166.714 51.0591C166.45 50.5229 166.261 49.8813 166.147 49.1343C166.042 48.3872 165.976 47.7544 165.949 47.2358C165.923 46.7173 165.91 45.9351 165.91 44.8892ZM179.581 35.2783H183.497L187.518 44.5332L191.169 35.2783H195.059L188.256 51.2568C187.342 53.4189 185.909 54.5 183.958 54.5H181.664V51.1514H183.18C184.156 51.1514 184.819 50.7471 185.171 49.9385L185.738 48.6201L179.581 35.2783ZM194.386 54.5V51.1514H195.006C195.964 51.1514 196.715 50.8042 197.26 50.1099C197.805 49.4155 198.104 48.2158 198.157 46.5107L198.46 35.2783H210.286V54.5H206.528V38.627H202.151L201.94 46.6689C201.817 51.8896 199.849 54.5 196.034 54.5H194.386ZM214.781 54.5V35.2783H218.539V42.5161H222.335C224.208 42.5161 225.715 43.0742 226.857 44.1904C228.009 45.3066 228.584 46.748 228.584 48.5146C228.584 50.2725 228.004 51.7095 226.844 52.8257C225.693 53.9419 224.19 54.5 222.335 54.5H214.781ZM218.539 51.1514H222.045C222.889 51.1514 223.562 50.9097 224.062 50.4263C224.572 49.9341 224.827 49.2925 224.827 48.5015C224.827 47.7104 224.572 47.0732 224.062 46.5898C223.562 46.1064 222.889 45.8647 222.045 45.8647H218.539V51.1514ZM228.664 38.627V35.2783H242.467V38.627H237.444V54.5H233.687V38.627H228.664ZM241.781 54.5L248.782 35.2783H251.722L258.735 54.5H254.82L253.686 51.0986H246.857L245.697 54.5H241.781ZM247.912 47.9346H252.697L250.337 40.9473L247.912 47.9346ZM261.108 54.5V35.2783H264.866V43.1357H271.365V35.2783H275.123V54.5H271.365V46.458H264.866V54.5H261.108ZM278.155 38.627V35.2783H291.958V38.627H286.935V54.5H283.178V38.627H278.155Z" fill="black"/>
</svg>
