<svg width="290" height="60" viewBox="0 0 290 60" fill="none" xmlns="http://www.w3.org/2000/svg">
<path fill-rule="evenodd" clip-rule="evenodd" d="M0 29.8814C0 13.3783 13.3783 0 29.8814 0C46.3845 0 59.7628 13.3783 59.7628 29.8814C59.7628 46.3845 46.3845 59.7628 29.8814 59.7628C13.3783 59.7628 0 46.3845 0 29.8814ZM3.23047 29.8797C3.23047 15.1617 15.1619 3.23022 29.8799 3.23022C44.5979 3.23022 56.5294 15.1617 56.5294 29.8797C56.5294 44.5977 44.5979 56.5292 29.8799 56.5292C15.1619 56.5292 3.23047 44.5977 3.23047 29.8797Z" fill="#0092E4"/>
<path fill-rule="evenodd" clip-rule="evenodd" d="M42.0119 21.8047H16.9581C14.2776 21.8047 12.1133 23.9704 12.1133 26.6509V36.1364C12.1133 37.166 12.9373 37.9915 13.9684 37.9915C14.9995 37.9915 15.8249 37.166 15.8249 36.1364V32.836H43.1466V36.0328C43.1466 37.0639 43.9706 37.8879 45.0017 37.8879C46.0327 37.8879 46.8582 37.0639 46.8582 36.0328V26.6509C46.8582 23.9704 44.6925 21.8047 42.0119 21.8047ZM15.8271 29.125V26.6515C15.8271 25.9296 16.4455 25.4133 17.0639 25.4133H41.9106C42.6325 25.4133 43.1488 26.0317 43.1488 26.6515V29.125H15.8271Z" fill="white"/>
<path fill-rule="evenodd" clip-rule="evenodd" d="M157.504 37.8376H127.596V23.654C127.596 22.6258 128.418 21.8047 129.446 21.8047C130.473 21.8047 131.296 22.6258 131.296 23.654V34.1375H157.504C158.533 34.1375 159.354 34.96 159.354 35.9883C159.354 37.015 158.533 37.8376 157.504 37.8376Z" fill="white"/>
<path fill-rule="evenodd" clip-rule="evenodd" d="M101.78 37.8376H71.8711V23.654C71.8711 22.6258 72.6937 21.8047 73.7219 21.8047C74.7486 21.8047 75.5712 22.6258 75.5712 23.654V34.1375H101.78C102.808 34.1375 103.629 34.96 103.629 35.9883C103.629 37.015 102.808 37.8376 101.78 37.8376Z" fill="white"/>
<path fill-rule="evenodd" clip-rule="evenodd" d="M216.909 25.5048H185.974C184.946 25.5048 184.123 24.6822 184.123 23.6555C184.123 22.6273 184.946 21.8047 185.974 21.8047H216.909C217.938 21.8047 218.759 22.6273 218.759 23.6555C218.759 24.6822 217.938 25.5048 216.909 25.5048Z" fill="white"/>
<path fill-rule="evenodd" clip-rule="evenodd" d="M216.909 37.6181H185.974C184.946 37.6181 184.123 36.7955 184.123 35.7687C184.123 34.7405 184.946 33.918 185.974 33.918H216.909C217.938 33.918 218.759 34.7405 218.759 35.7687C218.759 36.7955 217.938 37.6181 216.909 37.6181Z" fill="white"/>
<path fill-rule="evenodd" clip-rule="evenodd" d="M216.909 31.9657H185.974C184.946 31.9657 184.123 31.1432 184.123 30.1164C184.123 29.0882 184.946 28.2656 185.974 28.2656H216.909C217.938 28.2656 218.759 29.0882 218.759 30.1164C218.759 31.1432 217.938 31.9657 216.909 31.9657Z" fill="white"/>
<path fill-rule="evenodd" clip-rule="evenodd" d="M270.71 37.7355H245.736C244.707 37.7355 243.885 36.9129 243.885 35.8861C243.885 34.8579 244.707 34.0354 245.736 34.0354H270.71C271.327 34.0354 271.841 33.522 271.841 32.9051C271.841 32.186 271.327 31.6712 270.71 31.6712H248.715C246.043 31.6712 243.885 29.5127 243.885 26.8408V26.6351C243.885 23.9632 246.043 21.8047 248.715 21.8047H273.691C274.718 21.8047 275.541 22.6273 275.541 23.6555C275.541 24.6822 274.718 25.5048 273.691 25.5048H248.715C248.1 25.5048 247.585 26.0182 247.585 26.6351V26.8408C247.585 27.4577 248.1 27.9711 248.715 27.9711H270.71C273.382 27.9711 275.541 30.1296 275.541 32.8015C275.541 35.577 273.382 37.7355 270.71 37.7355Z" fill="white"/>
<path fill-rule="evenodd" clip-rule="evenodd" d="M287.533 21.8047C286.197 21.8047 285.066 22.935 285.066 24.271C285.066 25.6069 286.197 26.7387 287.533 26.7387C288.869 26.7387 289.999 25.6069 289.999 24.271C289.999 22.935 288.869 21.8047 287.533 21.8047ZM287.532 26.1221C286.504 26.1221 285.683 25.2995 285.683 24.2713C285.683 23.2445 286.504 22.422 287.532 22.422C288.56 22.422 289.381 23.2445 289.381 24.2713C289.381 25.2995 288.56 26.1221 287.532 26.1221Z" fill="white"/>
<path fill-rule="evenodd" clip-rule="evenodd" d="M286.993 25.1652C286.993 25.3709 286.686 25.3709 286.686 25.1652V23.6236C286.686 23.5201 286.788 23.418 286.891 23.418H287.61C288.329 23.418 288.433 24.3426 287.816 24.5483L288.124 24.9596C288.227 25.1652 288.022 25.3709 287.816 25.1652L287.405 24.5483H286.993V25.1652ZM286.995 24.2639H287.639C287.947 24.2639 287.95 23.7505 287.639 23.7505H286.995V24.2639Z" fill="white"/>
</svg>
