<svg width="340" height="71" viewBox="0 0 340 71" fill="none" xmlns="http://www.w3.org/2000/svg">
<path fill-rule="evenodd" clip-rule="evenodd" d="M0 35.0334C0 15.6848 15.6848 0 35.0334 0C54.3819 0 70.0667 15.6848 70.0667 35.0334C70.0667 54.3819 54.3819 70.0667 35.0334 70.0667C15.6848 70.0667 0 54.3819 0 35.0334ZM3.78711 35.0313C3.78711 17.7757 17.7757 3.78711 35.0313 3.78711C52.2869 3.78711 66.2755 17.7757 66.2755 35.0313C66.2755 52.2869 52.2869 66.2755 35.0313 66.2755C17.7757 66.2755 3.78711 52.2869 3.78711 35.0313Z" fill="#0092E4"/>
<path fill-rule="evenodd" clip-rule="evenodd" d="M49.2577 25.5634H19.8842C16.7415 25.5634 14.2041 28.1025 14.2041 31.2452V42.3661C14.2041 43.5732 15.1702 44.541 16.379 44.541C17.5879 44.541 18.5557 43.5732 18.5557 42.3661V38.4967H50.5879V42.2447C50.5879 43.4535 51.554 44.4196 52.7629 44.4196C53.9717 44.4196 54.9395 43.4535 54.9395 42.2447V31.2452C54.9395 28.1025 52.4004 25.5634 49.2577 25.5634ZM18.5567 34.145V31.2451C18.5567 30.3987 19.2817 29.7934 20.0067 29.7934H49.1374C49.9837 29.7934 50.589 30.5184 50.589 31.2451V34.145H18.5567Z" fill="white"/>
<path fill-rule="evenodd" clip-rule="evenodd" d="M184.659 44.3606H149.594V27.7316C149.594 26.5261 150.558 25.5634 151.764 25.5634C152.967 25.5634 153.932 26.5261 153.932 27.7316V40.0225H184.659C185.865 40.0225 186.827 40.9869 186.827 42.1924C186.827 43.3962 185.865 44.3606 184.659 44.3606Z" fill="white"/>
<path fill-rule="evenodd" clip-rule="evenodd" d="M119.329 44.3606H84.2637V27.7316C84.2637 26.5261 85.2281 25.5634 86.4336 25.5634C87.6374 25.5634 88.6017 26.5261 88.6017 27.7316V40.0225H119.329C120.535 40.0225 121.497 40.9869 121.497 42.1924C121.497 43.3962 120.535 44.3606 119.329 44.3606Z" fill="white"/>
<path fill-rule="evenodd" clip-rule="evenodd" d="M254.309 29.9015H218.04C216.834 29.9015 215.87 28.9371 215.87 27.7333C215.87 26.5278 216.834 25.5634 218.04 25.5634H254.309C255.514 25.5634 256.477 26.5278 256.477 27.7333C256.477 28.9371 255.514 29.9015 254.309 29.9015Z" fill="white"/>
<path fill-rule="evenodd" clip-rule="evenodd" d="M254.309 44.1035H218.04C216.834 44.1035 215.87 43.1391 215.87 41.9353C215.87 40.7298 216.834 39.7654 218.04 39.7654H254.309C255.514 39.7654 256.477 40.7298 256.477 41.9353C256.477 43.1391 255.514 44.1035 254.309 44.1035Z" fill="white"/>
<path fill-rule="evenodd" clip-rule="evenodd" d="M254.309 37.4761H218.04C216.834 37.4761 215.87 36.5117 215.87 35.3079C215.87 34.1024 216.834 33.138 218.04 33.138H254.309C255.514 33.138 256.477 34.1024 256.477 35.3079C256.477 36.5117 255.514 37.4761 254.309 37.4761Z" fill="white"/>
<path fill-rule="evenodd" clip-rule="evenodd" d="M317.384 44.2409H288.103C286.898 44.2409 285.934 43.2765 285.934 42.0727C285.934 40.8672 286.898 39.9028 288.103 39.9028H317.384C318.107 39.9028 318.709 39.3009 318.709 38.5776C318.709 37.7346 318.107 37.131 317.384 37.131H291.597C288.464 37.131 285.934 34.6003 285.934 31.4678V31.2267C285.934 28.0941 288.464 25.5634 291.597 25.5634H320.879C322.083 25.5634 323.047 26.5278 323.047 27.7333C323.047 28.9371 322.083 29.9015 320.879 29.9015H291.597C290.875 29.9015 290.272 30.5034 290.272 31.2267V31.4678C290.272 32.1911 290.875 32.793 291.597 32.793H317.384C320.517 32.793 323.047 35.3236 323.047 38.4562C323.047 41.7102 320.517 44.2409 317.384 44.2409Z" fill="white"/>
<path fill-rule="evenodd" clip-rule="evenodd" d="M337.108 25.5634C335.542 25.5634 334.217 26.8886 334.217 28.4549C334.217 30.0212 335.542 31.3481 337.108 31.3481C338.675 31.3481 340 30.0212 340 28.4549C340 26.8886 338.675 25.5634 337.108 25.5634ZM337.107 30.6247C335.902 30.6247 334.939 29.6604 334.939 28.4549C334.939 27.2511 335.902 26.2867 337.107 26.2867C338.313 26.2867 339.275 27.2511 339.275 28.4549C339.275 29.6604 338.313 30.6247 337.107 30.6247Z" fill="white"/>
<path fill-rule="evenodd" clip-rule="evenodd" d="M336.474 29.5056C336.474 29.7467 336.113 29.7467 336.113 29.5056V27.6982C336.113 27.5768 336.232 27.4571 336.354 27.4571H337.197C338.04 27.4571 338.161 28.5412 337.438 28.7823L337.799 29.2645C337.92 29.5056 337.679 29.7467 337.438 29.5056L336.956 28.7823H336.474V29.5056ZM336.474 28.45H337.23C337.591 28.45 337.594 27.8481 337.23 27.8481H336.474V28.45Z" fill="white"/>
</svg>
