<svg width="386" height="80" viewBox="0 0 386 80" fill="none" xmlns="http://www.w3.org/2000/svg">
<path fill-rule="evenodd" clip-rule="evenodd" d="M0 39.7732C0 17.8069 17.8069 0 39.7732 0C61.7395 0 79.5464 17.8069 79.5464 39.7732C79.5464 61.7395 61.7395 79.5464 39.7732 79.5464C17.8069 79.5464 0 61.7395 0 39.7732ZM4.29949 39.7709C4.29949 20.1807 20.1807 4.29949 39.7709 4.29949C59.3611 4.29949 75.2423 20.1807 75.2423 39.7709C75.2423 59.3611 59.3611 75.2423 39.7709 75.2423C20.1807 75.2423 4.29949 59.3611 4.29949 39.7709Z" fill="#0092E4"/>
<path fill-rule="evenodd" clip-rule="evenodd" d="M55.9212 29.0215H22.5736C19.0057 29.0215 16.125 31.9041 16.125 35.472V48.0975C16.125 49.468 17.2218 50.5667 18.5942 50.5667C19.9666 50.5667 21.0653 49.468 21.0653 48.0975V43.7046H57.4314V47.9596C57.4314 49.3321 58.5282 50.4288 59.9006 50.4288C61.273 50.4288 62.3717 49.3321 62.3717 47.9596V35.472C62.3717 31.9041 59.4891 29.0215 55.9212 29.0215ZM21.0675 38.7646V35.4724C21.0675 34.5115 21.8906 33.8243 22.7137 33.8243H55.7856C56.7465 33.8243 57.4336 34.6474 57.4336 35.4724V38.7646H21.0675Z" fill="white"/>
<path fill-rule="evenodd" clip-rule="evenodd" d="M209.644 50.3628H169.834V31.484C169.834 30.1154 170.929 29.0225 172.297 29.0225C173.664 29.0225 174.759 30.1154 174.759 31.484V45.4378H209.644C211.012 45.4378 212.105 46.5327 212.105 47.9013C212.105 49.268 211.012 50.3628 209.644 50.3628Z" fill="white"/>
<path fill-rule="evenodd" clip-rule="evenodd" d="M135.474 50.3628H95.6641V31.484C95.6641 30.1154 96.7589 29.0225 98.1275 29.0225C99.4942 29.0225 100.589 30.1154 100.589 31.484V45.4378H135.474C136.842 45.4378 137.935 46.5327 137.935 47.9013C137.935 49.268 136.842 50.3628 135.474 50.3628Z" fill="white"/>
<path fill-rule="evenodd" clip-rule="evenodd" d="M288.716 33.9475H247.54C246.171 33.9475 245.076 32.8526 245.076 31.4859C245.076 30.1173 246.171 29.0225 247.54 29.0225H288.716C290.084 29.0225 291.177 30.1173 291.177 31.4859C291.177 32.8526 290.084 33.9475 288.716 33.9475Z" fill="white"/>
<path fill-rule="evenodd" clip-rule="evenodd" d="M288.716 50.0705H247.54C246.171 50.0705 245.076 48.9756 245.076 47.609C245.076 46.2404 246.171 45.1455 247.54 45.1455H288.716C290.084 45.1455 291.177 46.2404 291.177 47.609C291.177 48.9756 290.084 50.0705 288.716 50.0705Z" fill="white"/>
<path fill-rule="evenodd" clip-rule="evenodd" d="M288.716 42.5461H247.54C246.171 42.5461 245.076 41.4512 245.076 40.0845C245.076 38.716 246.171 37.6211 247.54 37.6211H288.716C290.084 37.6211 291.177 38.716 291.177 40.0845C291.177 41.4512 290.084 42.5461 288.716 42.5461Z" fill="white"/>
<path fill-rule="evenodd" clip-rule="evenodd" d="M360.325 50.2269H327.083C325.714 50.2269 324.619 49.1321 324.619 47.7654C324.619 46.3968 325.714 45.3019 327.083 45.3019H360.325C361.146 45.3019 361.829 44.6186 361.829 43.7974C361.829 42.8404 361.146 42.1551 360.325 42.1551H331.049C327.492 42.1551 324.619 39.2821 324.619 35.7257V35.4519C324.619 31.8955 327.492 29.0225 331.049 29.0225H364.293C365.659 29.0225 366.754 30.1173 366.754 31.4859C366.754 32.8526 365.659 33.9475 364.293 33.9475H331.049C330.229 33.9475 329.544 34.6308 329.544 35.4519V35.7257C329.544 36.5468 330.229 37.2301 331.049 37.2301H360.325C363.881 37.2301 366.754 40.1032 366.754 43.6596C366.754 47.3539 363.881 50.2269 360.325 50.2269Z" fill="white"/>
<path fill-rule="evenodd" clip-rule="evenodd" d="M382.716 29.0215C380.938 29.0215 379.434 30.526 379.434 32.3042C379.434 34.0824 380.938 35.5888 382.716 35.5888C384.494 35.5888 385.999 34.0824 385.999 32.3042C385.999 30.526 384.494 29.0215 382.716 29.0215ZM382.716 34.768C381.347 34.768 380.254 33.6731 380.254 32.3046C380.254 30.9379 381.347 29.843 382.716 29.843C384.084 29.843 385.177 30.9379 385.177 32.3046C385.177 33.6731 384.084 34.768 382.716 34.768Z" fill="white"/>
<path fill-rule="evenodd" clip-rule="evenodd" d="M381.998 33.4975C381.998 33.7712 381.588 33.7712 381.588 33.4975V31.4456C381.588 31.3078 381.724 31.1719 381.862 31.1719H382.819C383.776 31.1719 383.914 32.4026 383.092 32.6764L383.502 33.2238C383.64 33.4975 383.366 33.7712 383.092 33.4975L382.545 32.6764H381.998V33.4975ZM381.998 32.2986H382.856C383.265 32.2986 383.269 31.6153 382.856 31.6153H381.998V32.2986Z" fill="white"/>
</svg>
