<svg width="83" height="83" viewBox="0 0 83 83" fill="none" xmlns="http://www.w3.org/2000/svg">
<circle cx="54" cy="54" r="26" stroke="black" stroke-width="4"/>
<path fill-rule="evenodd" clip-rule="evenodd" d="M51.9825 27.0742C51.496 14.2484 40.9448 4 28 4C14.7452 4 4 14.7452 4 28C4 40.9448 14.2484 51.496 27.0742 51.9825C27.025 52.6486 27 53.3214 27 54C27 54.3289 27.0059 54.6564 27.0175 54.9825C12.561 54.4654 1 42.5828 1 28C1 13.0883 13.0883 1 28 1C42.5828 1 54.4654 12.561 54.9825 27.0175C54.6564 27.0059 54.3289 27 54 27C53.3214 27 52.6486 27.025 51.9825 27.0742Z" fill="black"/>
<path d="M76.0099 22.8386C74.8942 18.1356 72.5019 13.6738 68.8332 10.0051C65.1645 6.3364 60.7027 3.94417 55.9997 2.82843" stroke="black" stroke-width="3"/>
<path d="M77.7087 29.0556L71.0673 23.5882L80.7266 21L77.7087 29.0556Z" fill="black"/>
<path d="M22.8386 76.0099C18.1356 74.8942 13.6738 72.5019 10.0051 68.8332C6.3364 65.1645 3.94417 60.7027 2.82843 55.9997" stroke="black" stroke-width="3"/>
<path d="M29.0556 77.7096L23.5882 71.0683L21 80.7275L29.0556 77.7096Z" fill="black"/>
<path fill-rule="evenodd" clip-rule="evenodd" d="M45.0305 68.9328V59.5589L50.7646 56.1998V63.5671H56.7402C57.9206 63.5671 58.8528 63.2221 59.5369 62.532C60.2209 61.8419 60.563 60.9195 60.563 59.7646C60.563 58.6098 60.2209 57.6944 59.5369 57.0184C58.8528 56.3424 57.9206 56.0102 56.7402 56.0102H50.7646H39.2305V50.5867H45.0305V38.1328H56.8207C59.5972 38.1328 61.797 38.9003 63.42 40.4354C65.0564 41.9564 65.8746 44.0126 65.8746 46.6039C65.8746 49.5473 64.6674 51.7231 62.253 53.1314C63.192 53.6525 63.9364 54.2018 64.4864 54.7792C65.6935 56.1312 66.2971 57.9057 66.2971 60.1026C66.2971 62.8207 65.4856 64.9754 63.8626 66.5668C62.2396 68.1442 60.0533 68.9328 57.3036 68.9328H45.0305ZM50.7646 50.5867H56.3579C57.5383 50.5867 58.4638 50.2796 59.1345 49.6458C59.8186 49.0121 60.1606 48.146 60.1606 47.0475C60.1606 45.949 59.8186 45.0829 59.1345 44.4491C58.4638 43.8154 57.5383 43.4985 56.3579 43.4985H50.7646V50.5867Z" fill="black"/>
<path d="M31.6003 31.849C34.4447 31.849 36.7558 30.9405 38.5336 29.2142C40.3114 27.488 41.2003 25.2166 41.2003 22.4909C41.2003 19.7653 40.3114 17.4939 38.5336 15.7676C36.7558 14.0414 34.4447 13.1328 31.6003 13.1328H20.2225V35.3015H16.9336V39.1175H20.2225V43.9328H24.7558V39.1175H35.6003V35.3015H24.7558V31.849H31.6003ZM24.7558 17.3122H31.3336C33.0225 17.3122 34.2669 17.7664 35.2447 18.675C36.2225 19.5835 36.6669 20.8555 36.6669 22.4001C36.6669 23.9446 36.2225 25.2166 35.2447 26.1251C34.2669 27.0337 32.9336 27.488 31.3336 27.488H24.7558V17.3122Z" fill="black"/>
<rect x="17" y="27.5" width="9" height="4.3" fill="black"/>
</svg>
