<svg width="45" height="46" viewBox="0 0 45 46" fill="none" xmlns="http://www.w3.org/2000/svg">
<path d="M11.6511 40.9845L11.0835 40.6413L10.4477 40.8302L1.94374 43.3575L3.87394 33.4107L3.97167 32.9071L3.74049 32.4491C2.30772 29.6106 1.5 26.4018 1.5 23C1.5 11.402 10.902 2 22.5 2C34.098 2 43.5 11.402 43.5 23C43.5 34.598 34.098 44 22.5 44C18.5272 44 14.8163 42.8983 11.6511 40.9845Z" stroke="black" stroke-width="3"/>
<path d="M29.25 17.075C29.25 20.4301 26.5637 24.5 23.25 24.5C19.9363 24.5 17.25 20.4301 17.25 17.075C17.25 13.7199 19.9363 11 23.25 11C26.5637 11 29.25 13.7199 29.25 17.075Z" fill="black"/>
<path d="M17.5833 26.583C13.6713 26.583 10.5 29.7543 10.5 33.6663V41.1038L12.2708 40.6561C14.3668 42.0164 18.2174 43.9372 23.25 43.9372C31.0417 43.9372 36 39.333 36 39.333V33.6663C36 29.7543 32.8287 26.583 28.9167 26.583H17.5833Z" fill="black"/>
</svg>
