<svg width="48" height="42" viewBox="0 0 48 42" fill="none" xmlns="http://www.w3.org/2000/svg">
<path d="M28.5679 32V27.8984L37.8818 17.0977C38.7477 16.1178 39.175 15.1095 39.1636 14.0728C39.1636 13.1157 38.8958 12.3581 38.3604 11.7998C37.8249 11.2415 37.09 10.9624 36.1558 10.9624C34.2189 10.9624 33.2049 12.0277 33.1138 14.1582H28.5679C28.6362 12.848 28.8242 11.8397 29.1318 11.1333C29.7129 9.77751 30.6187 8.72933 31.8491 7.98877C33.091 7.24821 34.5379 6.87793 36.1899 6.87793C38.4344 6.87793 40.2516 7.54443 41.6416 8.87744C43.0316 10.1991 43.7266 11.9308 43.7266 14.0728C43.7266 15.1209 43.5443 16.0324 43.1797 16.8071C42.8151 17.5819 42.1087 18.5845 41.0605 19.8149L34.0879 27.8984H43.7266V32H28.5679Z" fill="black"/>
<path d="M23.5 9.11133L1.5 31.1113" stroke="black" stroke-width="4"/>
<path d="M1.5 9.11133L23.5 31.1113" stroke="black" stroke-width="4"/>
</svg>
