<svg width="80" height="68" viewBox="0 0 80 68" fill="none" xmlns="http://www.w3.org/2000/svg">
<path d="M72.002 65.7463C71.035 65.5057 70.0831 65.1156 69.037 64.6651C68.9366 64.6218 68.8347 64.5777 68.7311 64.5328C67.1471 63.8464 65.1983 63.002 63.002 63.002C60.3698 63.002 58.1734 63.9076 56.3844 64.6452L56.3657 64.653C54.4762 65.4321 53.0677 66.002 51.502 66.002C50.0877 66.002 48.5939 65.4297 46.5899 64.6409L46.5302 64.6174C44.6957 63.8952 42.4266 63.002 40.002 63.002C37.8016 63.002 35.5968 63.8037 33.7173 64.4871C33.5926 64.5324 33.4694 64.5772 33.3477 64.6212C31.2432 65.3824 29.3902 66.002 27.5019 66.002C25.6815 66.002 24.2876 65.4223 22.6715 64.6832C22.5753 64.6392 22.4776 64.5942 22.3783 64.5484C20.8776 63.8574 19.0201 63.002 16.7519 63.002C14.5421 63.002 12.986 63.825 11.7418 64.483C11.5847 64.5661 11.4325 64.6466 11.2847 64.7224C10.378 65.1876 9.40423 65.634 8.00085 65.8561L8.00067 65.1227C8.00038 63.2908 8.0002 60.6737 8.0001 57.5331C7.9999 51.252 8.00003 42.877 8.0003 34.502L8.00129 11.4708L8.00172 3.88098L8.00177 3.00195H72.002V65.7463Z" stroke="black" stroke-width="4"/>
<path fill-rule="evenodd" clip-rule="evenodd" d="M5 0C2.23858 0 0 2.23858 0 5C0 7.76142 2.23858 10 5 10H8V5H72V10H75C77.7614 10 80 7.76142 80 5C80 2.23858 77.7614 0 75 0H5Z" fill="black"/>
<rect x="17" y="12.002" width="32" height="3" fill="black"/>
<rect x="17" y="20.002" width="24" height="3" fill="black"/>
<rect x="17" y="28.002" width="32" height="3" fill="black"/>
<rect x="17" y="36" width="14" height="3" fill="black"/>
<rect x="59" y="12.002" width="4" height="3" fill="black"/>
<rect x="59" y="20.002" width="4" height="3" fill="black"/>
<rect x="59" y="28.002" width="4" height="3" fill="black"/>
<rect x="59" y="36.002" width="4" height="3" fill="black"/>
</svg>
