<svg width="38" height="40" viewBox="0 0 38 40" fill="none" xmlns="http://www.w3.org/2000/svg">
<path d="M21.5953 25V21.8359L28.7804 13.5039C29.4483 12.748 29.7779 11.9702 29.7691 11.1704C29.7691 10.4321 29.5626 9.84766 29.1495 9.41699C28.7364 8.98633 28.1695 8.771 27.4488 8.771C25.9547 8.771 25.1725 9.59277 25.1021 11.2363H21.5953C21.648 10.2256 21.7931 9.44775 22.0304 8.90283C22.4786 7.85693 23.1773 7.04834 24.1266 6.47705C25.0846 5.90576 26.2008 5.62012 27.4752 5.62012C29.2066 5.62012 30.6085 6.13428 31.6808 7.1626C32.753 8.18213 33.2892 9.51807 33.2892 11.1704C33.2892 11.979 33.1485 12.6821 32.8673 13.2798C32.586 13.8774 32.0411 14.6509 31.2325 15.6001L25.8536 21.8359H33.2892V25H21.5953Z" fill="black"/>
<path d="M18.0001 8L2.00009 24" stroke="black" stroke-width="3"/>
<path d="M2.00009 8L18.0001 24" stroke="black" stroke-width="3"/>
</svg>
