<svg width="109" height="112" viewBox="0 0 109 112" fill="none" xmlns="http://www.w3.org/2000/svg">
<g filter="url(#filter0_i_7211_1781)">
<path d="M7.29202 75.1106C10.9119 78.1714 16.3118 77.7377 19.3525 74.1415L42.6708 46.5637L79.1815 77.4351L87.9438 67.0722C99.4529 53.4608 97.675 33.0342 83.9728 21.4483C73.5017 12.5945 59.0973 11.4659 47.75 17.4999L47.7485 17.4881C40.2872 21.2293 31.3485 31.8008 29.376 34.994C28.1821 36.9264 27.2081 38.2276 26.6213 38.9556L6.24274 63.0566C3.20199 66.6528 3.67188 72.0496 7.29202 75.1106Z" fill="#FFB451"/>
</g>
<path d="M7.29202 75.1116C10.9119 78.1724 16.3118 77.7387 19.3525 74.1425L42.6708 46.5647L79.1815 77.4361L87.9438 67.0732C99.4529 53.4617 97.675 33.0352 83.9728 21.4492C73.5017 12.5955 59.0973 11.4668 47.75 17.5009L47.7485 17.4891C40.2872 21.2302 31.3485 31.8018 29.376 34.995C28.1821 36.9274 27.2081 38.2285 26.6213 38.9566L6.24274 63.0576C3.20199 66.6538 3.67188 72.0506 7.29202 75.1116Z" fill="url(#paint0_radial_7211_1781)"/>
<path d="M7.29202 75.1116C10.9119 78.1724 16.3118 77.7387 19.3525 74.1425L42.6708 46.5647L79.1815 77.4361L87.9438 67.0732C99.4529 53.4617 97.675 33.0352 83.9728 21.4492C73.5017 12.5955 59.0973 11.4668 47.75 17.5009L47.7485 17.4891C40.2872 21.2302 31.3485 31.8018 29.376 34.995C28.1821 36.9274 27.2081 38.2285 26.6213 38.9566L6.24274 63.0576C3.20199 66.6538 3.67188 72.0506 7.29202 75.1116Z" fill="url(#paint1_linear_7211_1781)"/>
<path d="M7.29202 75.1116C10.9119 78.1724 16.3118 77.7387 19.3525 74.1425L42.6708 46.5647L79.1815 77.4361L87.9438 67.0732C99.4529 53.4618 97.675 33.0352 83.9728 21.4492C73.5017 12.5955 59.0973 11.4668 47.75 17.5009L47.7485 17.4891C40.2872 21.2302 31.3485 31.8018 29.376 34.995C28.1821 36.9274 27.2081 38.2285 26.6213 38.9566L6.24274 63.0576C3.20199 66.6538 3.67188 72.0506 7.29202 75.1116Z" fill="url(#paint2_radial_7211_1781)"/>
<g filter="url(#filter1_f_7211_1781)">
<path d="M63.1319 50.9944C60.1627 54.506 54.9804 55.0058 51.5567 52.1109L46.0697 47.0119C45.3032 46.1847 44.6564 45.2279 44.1806 44.2025C41.1371 38.2433 41.2985 30.6494 45.0575 24.7418L61.3084 38.4827C61.543 38.7252 61.7906 38.956 62.0492 39.1747L62.3091 39.3944C65.7328 42.2893 66.1011 47.4828 63.1319 50.9944Z" fill="#DE6C2A"/>
</g>
<g filter="url(#filter2_f_7211_1781)">
<path d="M75.7352 73.3033C73.5458 75.8927 69.8353 76.0643 67.0491 73.9989C64.4912 72.0386 63.3137 68.4766 65.6212 65.3257L69.987 59.3371C72.1767 56.333 76.8707 56.1712 79.7297 58.5886C82.4501 60.8889 82.8041 64.9432 80.5202 67.6443L75.7352 73.3033Z" fill="#DE6C2A"/>
</g>
<g filter="url(#filter3_f_7211_1781)">
<path d="M65.3083 66.3585C62.6268 69.5298 57.7875 69.8467 54.4995 67.0665C51.2113 64.2862 50.7196 59.4617 53.4011 56.2904L59.7489 48.7831C62.4304 45.6117 67.2694 45.2947 70.5577 48.075C73.8457 50.8552 74.6401 54.3486 71.7123 57.8112L65.3083 66.3585Z" fill="#DE6C2A"/>
</g>
<g filter="url(#filter4_i_7211_1781)">
<path d="M76.668 80.4078C73.8037 83.7953 68.9508 84.0208 65.3072 81.3205C61.9625 78.7572 60.4236 74.0982 63.4428 69.9765L69.1548 62.1414C72.0199 58.2114 78.1589 57.9984 81.8973 61.1594C85.4546 64.1672 85.9162 69.4703 82.9283 73.0039L76.668 80.4078Z" fill="url(#paint3_linear_7211_1781)"/>
<path d="M76.668 80.4078C73.8037 83.7953 68.9508 84.0208 65.3072 81.3205C61.9625 78.7572 60.4236 74.0982 63.4428 69.9765L69.1548 62.1414C72.0199 58.2114 78.1589 57.9984 81.8973 61.1594C85.4546 64.1672 85.9162 69.4703 82.9283 73.0039L76.668 80.4078Z" fill="url(#paint4_linear_7211_1781)"/>
</g>
<path d="M76.668 80.4097C73.8037 83.7973 68.9508 84.0228 65.3072 81.3224C61.9625 78.7591 60.4236 74.1002 63.4428 69.9784L69.1548 62.1434C72.0199 58.2133 78.1589 58.0003 81.8973 61.1613C85.4546 64.1692 85.9162 69.4722 82.9283 73.0058L76.668 80.4097Z" fill="url(#paint5_radial_7211_1781)"/>
<path d="M76.668 80.4097C73.8037 83.7973 68.9508 84.0228 65.3072 81.3224C61.9625 78.7591 60.4236 74.1002 63.4428 69.9784L69.1548 62.1434C72.0199 58.2133 78.1589 58.0003 81.8973 61.1613C85.4546 64.1692 85.9162 69.4722 82.9283 73.0058L76.668 80.4097Z" fill="url(#paint6_radial_7211_1781)"/>
<g filter="url(#filter5_i_7211_1781)">
<path d="M62.4269 72.9833C59.4093 76.552 54.0505 76.9827 50.4577 73.9449C46.865 70.9071 46.399 65.5511 49.4165 61.9824L56.5605 53.5336C59.5782 49.9646 64.9368 49.5341 68.5296 52.5719C72.1223 55.6098 72.9446 59.4807 69.65 63.3771L62.4269 72.9833Z" fill="url(#paint7_linear_7211_1781)"/>
<path d="M62.4269 72.9833C59.4093 76.552 54.0505 76.9827 50.4577 73.9449C46.865 70.9071 46.399 65.5511 49.4165 61.9824L56.5605 53.5336C59.5782 49.9646 64.9368 49.5341 68.5296 52.5719C72.1223 55.6098 72.9446 59.4807 69.65 63.3771L62.4269 72.9833Z" fill="url(#paint8_linear_7211_1781)"/>
<path d="M62.4269 72.9833C59.4093 76.552 54.0505 76.9827 50.4577 73.9449C46.865 70.9071 46.399 65.5511 49.4165 61.9824L56.5605 53.5336C59.5782 49.9646 64.9368 49.5341 68.5296 52.5719C72.1223 55.6098 72.9446 59.4807 69.65 63.3771L62.4269 72.9833Z" fill="url(#paint9_radial_7211_1781)"/>
<path d="M62.4269 72.9833C59.4093 76.552 54.0505 76.9827 50.4577 73.9449C46.865 70.9071 46.399 65.5511 49.4165 61.9824L56.5605 53.5336C59.5782 49.9646 64.9368 49.5341 68.5296 52.5719C72.1223 55.6098 72.9446 59.4807 69.65 63.3771L62.4269 72.9833Z" fill="url(#paint10_radial_7211_1781)"/>
</g>
<g filter="url(#filter6_i_7211_1781)">
<path d="M48.7536 63.4943C45.4907 67.3533 39.8551 67.9527 36.1658 64.8333C32.4768 61.7141 32.131 56.057 35.3939 52.198L43.118 43.063C46.3809 39.2041 52.0166 38.6051 55.7056 41.7243C59.3948 44.8437 60.8688 49.1661 57.3066 53.379L48.7536 63.4943Z" fill="url(#paint11_linear_7211_1781)"/>
</g>
<g filter="url(#filter7_f_7211_1781)">
<path d="M65.8852 70.6899C64.8561 72.0633 65.142 74.0172 66.5237 75.0541C67.9053 76.091 69.8596 75.8183 70.8886 74.4449L75.9931 67.6324C77.0221 66.259 76.7363 64.3051 75.3546 63.2682C73.9729 62.2312 72.0187 62.504 70.9897 63.8773L65.8852 70.6899Z" fill="#FFDF64"/>
</g>
<g filter="url(#filter8_f_7211_1781)">
<path d="M50.2251 65.9225C49.1498 67.2599 49.3693 69.222 50.7152 70.3049C52.0612 71.3878 54.024 71.1814 55.0993 69.844L61.8731 61.419C62.9484 60.0815 62.7289 58.1195 61.383 57.0366C60.037 55.9537 58.0742 56.16 56.9989 57.4975L50.2251 65.9225Z" fill="url(#paint12_radial_7211_1781)"/>
</g>
<g filter="url(#filter9_f_7211_1781)">
<path d="M35.844 54.1314C34.4988 55.8044 34.7733 58.2589 36.4571 59.6136C38.1409 60.9682 40.5963 60.7101 41.9415 59.037L49.1805 50.0333C50.5256 48.3602 50.2511 45.9058 48.5673 44.5511C46.8836 43.1964 44.4281 43.4546 43.083 45.1276L35.844 54.1314Z" fill="#FFDF64"/>
</g>
<path d="M47.0176 52.4732C50.4414 55.3681 55.6237 54.8683 58.5929 51.3567C61.5621 47.8451 61.1937 42.6516 57.77 39.7567L57.5101 39.537C55.4832 37.8231 54.1209 35.3365 54.5231 32.7257C55.0453 29.3329 56.4828 26.0316 58.8671 23.2118C60.6874 21.059 62.8758 19.4038 65.2597 18.261C57.5504 14.3725 47.8687 16.1479 42.0078 23.0794C36.8428 29.1879 36.2371 37.8989 39.6413 44.5646C40.1174 45.5902 40.7644 46.5472 41.5304 47.374L47.0176 52.4732Z" fill="url(#paint13_linear_7211_1781)"/>
<path d="M47.0176 52.4732C50.4414 55.3681 55.6237 54.8683 58.5929 51.3567C61.5621 47.8451 61.1937 42.6516 57.77 39.7567L57.5101 39.537C55.4832 37.8231 54.1209 35.3365 54.5231 32.7257C55.0453 29.3329 56.4828 26.0316 58.8671 23.2118C60.6874 21.059 62.8758 19.4038 65.2597 18.261C57.5504 14.3725 47.8687 16.1479 42.0078 23.0794C36.8428 29.1879 36.2371 37.8989 39.6413 44.5646C40.1174 45.5902 40.7644 46.5472 41.5304 47.374L47.0176 52.4732Z" fill="url(#paint14_radial_7211_1781)"/>
<path d="M47.0176 52.4732C50.4414 55.3681 55.6237 54.8683 58.5929 51.3567C61.5621 47.8451 61.1937 42.6516 57.77 39.7567L57.5101 39.537C55.4832 37.8231 54.1209 35.3365 54.5231 32.7257C55.0453 29.3329 56.4828 26.0316 58.8671 23.2118C60.6874 21.059 62.8758 19.4038 65.2597 18.261C57.5504 14.3725 47.8687 16.1479 42.0078 23.0794C36.8428 29.1879 36.2371 37.8989 39.6413 44.5646C40.1174 45.5902 40.7644 46.5472 41.5304 47.374L47.0176 52.4732Z" fill="url(#paint15_linear_7211_1781)"/>
<g filter="url(#filter10_f_7211_1781)">
<path d="M49.0312 46.4951C46.0658 43.9877 41.1089 39.7964 41.252 35.9455C40.7783 31.1237 43.8122 27.2258 44.5322 26.071" stroke="url(#paint16_linear_7211_1781)" stroke-width="1.25" stroke-linecap="round"/>
</g>
<g filter="url(#filter11_f_7211_1781)">
<path d="M8.09632 65.4145C7.13044 66.5568 7.27965 68.271 8.42958 69.2434C9.57951 70.2157 11.2947 70.0779 12.2606 68.9356L32.7938 44.6516C33.7597 43.5093 33.6105 41.795 32.4606 40.8227C31.3106 39.8504 29.5954 39.9882 28.6295 41.1305L8.09632 65.4145Z" fill="#FFEA5F"/>
</g>
<defs>
<filter id="filter0_i_7211_1781" x="4.23633" y="13.1285" width="91.8988" height="64.307" filterUnits="userSpaceOnUse" color-interpolation-filters="sRGB">
<feFlood flood-opacity="0" result="BackgroundImageFix"/>
<feBlend mode="normal" in="SourceGraphic" in2="BackgroundImageFix" result="shape"/>
<feColorMatrix in="SourceAlpha" type="matrix" values="0 0 0 0 0 0 0 0 0 0 0 0 0 0 0 0 0 0 127 0" result="hardAlpha"/>
<feOffset dx="0.6" dy="-0.6"/>
<feGaussianBlur stdDeviation="0.75"/>
<feComposite in2="hardAlpha" operator="arithmetic" k2="-1" k3="1"/>
<feColorMatrix type="matrix" values="0 0 0 0 0.992157 0 0 0 0 0.54902 0 0 0 0 0.435294 0 0 0 1 0"/>
<feBlend mode="normal" in2="shape" result="effect1_innerShadow_7211_1781"/>
</filter>
<filter id="filter1_f_7211_1781" x="39.5527" y="22.2422" width="28.0859" height="34.251" filterUnits="userSpaceOnUse" color-interpolation-filters="sRGB">
<feFlood flood-opacity="0" result="BackgroundImageFix"/>
<feBlend mode="normal" in="SourceGraphic" in2="BackgroundImageFix" result="shape"/>
<feGaussianBlur stdDeviation="1.25" result="effect1_foregroundBlur_7211_1781"/>
</filter>
<filter id="filter2_f_7211_1781" x="61.8848" y="54.415" width="22.6406" height="23.4971" filterUnits="userSpaceOnUse" color-interpolation-filters="sRGB">
<feFlood flood-opacity="0" result="BackgroundImageFix"/>
<feBlend mode="normal" in="SourceGraphic" in2="BackgroundImageFix" result="shape"/>
<feGaussianBlur stdDeviation="1.25" result="effect1_foregroundBlur_7211_1781"/>
</filter>
<filter id="filter3_f_7211_1781" x="49.1719" y="43.6807" width="26.8516" height="27.7803" filterUnits="userSpaceOnUse" color-interpolation-filters="sRGB">
<feFlood flood-opacity="0" result="BackgroundImageFix"/>
<feBlend mode="normal" in="SourceGraphic" in2="BackgroundImageFix" result="shape"/>
<feGaussianBlur stdDeviation="1.25" result="effect1_foregroundBlur_7211_1781"/>
</filter>
<filter id="filter4_i_7211_1781" x="61.8242" y="58.9727" width="23.0742" height="24.1943" filterUnits="userSpaceOnUse" color-interpolation-filters="sRGB">
<feFlood flood-opacity="0" result="BackgroundImageFix"/>
<feBlend mode="normal" in="SourceGraphic" in2="BackgroundImageFix" result="shape"/>
<feColorMatrix in="SourceAlpha" type="matrix" values="0 0 0 0 0 0 0 0 0 0 0 0 0 0 0 0 0 0 127 0" result="hardAlpha"/>
<feOffset/>
<feGaussianBlur stdDeviation="0.5"/>
<feComposite in2="hardAlpha" operator="arithmetic" k2="-1" k3="1"/>
<feColorMatrix type="matrix" values="0 0 0 0 0.945098 0 0 0 0 0.662745 0 0 0 0 0.282353 0 0 0 1 0"/>
<feBlend mode="normal" in2="shape" result="effect1_innerShadow_7211_1781"/>
</filter>
<filter id="filter5_i_7211_1781" x="47.4258" y="50.5479" width="24.2969" height="25.4209" filterUnits="userSpaceOnUse" color-interpolation-filters="sRGB">
<feFlood flood-opacity="0" result="BackgroundImageFix"/>
<feBlend mode="normal" in="SourceGraphic" in2="BackgroundImageFix" result="shape"/>
<feColorMatrix in="SourceAlpha" type="matrix" values="0 0 0 0 0 0 0 0 0 0 0 0 0 0 0 0 0 0 127 0" result="hardAlpha"/>
<feOffset/>
<feGaussianBlur stdDeviation="0.5"/>
<feComposite in2="hardAlpha" operator="arithmetic" k2="-1" k3="1"/>
<feColorMatrix type="matrix" values="0 0 0 0 0.866667 0 0 0 0 0.631373 0 0 0 0 0.329412 0 0 0 1 0"/>
<feBlend mode="normal" in2="shape" result="effect1_innerShadow_7211_1781"/>
</filter>
<filter id="filter6_i_7211_1781" x="33.1562" y="39.7266" width="26.1875" height="27.1045" filterUnits="userSpaceOnUse" color-interpolation-filters="sRGB">
<feFlood flood-opacity="0" result="BackgroundImageFix"/>
<feBlend mode="normal" in="SourceGraphic" in2="BackgroundImageFix" result="shape"/>
<feColorMatrix in="SourceAlpha" type="matrix" values="0 0 0 0 0 0 0 0 0 0 0 0 0 0 0 0 0 0 127 0" result="hardAlpha"/>
<feOffset/>
<feGaussianBlur stdDeviation="0.75"/>
<feComposite in2="hardAlpha" operator="arithmetic" k2="-1" k3="1"/>
<feColorMatrix type="matrix" values="0 0 0 0 0.898039 0 0 0 0 0.584314 0 0 0 0 0.0156863 0 0 0 1 0"/>
<feBlend mode="normal" in2="shape" result="effect1_innerShadow_7211_1781"/>
</filter>
<filter id="filter7_f_7211_1781" x="63.7676" y="61.1387" width="14.3438" height="16.0449" filterUnits="userSpaceOnUse" color-interpolation-filters="sRGB">
<feFlood flood-opacity="0" result="BackgroundImageFix"/>
<feBlend mode="normal" in="SourceGraphic" in2="BackgroundImageFix" result="shape"/>
<feGaussianBlur stdDeviation="0.75" result="effect1_foregroundBlur_7211_1781"/>
</filter>
<filter id="filter8_f_7211_1781" x="48.043" y="54.8418" width="16.0117" height="17.6572" filterUnits="userSpaceOnUse" color-interpolation-filters="sRGB">
<feFlood flood-opacity="0" result="BackgroundImageFix"/>
<feBlend mode="normal" in="SourceGraphic" in2="BackgroundImageFix" result="shape"/>
<feGaussianBlur stdDeviation="0.75" result="effect1_foregroundBlur_7211_1781"/>
</filter>
<filter id="filter9_f_7211_1781" x="33.4902" y="42.1826" width="18.043" height="19.7998" filterUnits="userSpaceOnUse" color-interpolation-filters="sRGB">
<feFlood flood-opacity="0" result="BackgroundImageFix"/>
<feBlend mode="normal" in="SourceGraphic" in2="BackgroundImageFix" result="shape"/>
<feGaussianBlur stdDeviation="0.75" result="effect1_foregroundBlur_7211_1781"/>
</filter>
<filter id="filter10_f_7211_1781" x="39.3281" y="24.1963" width="11.5781" height="24.1738" filterUnits="userSpaceOnUse" color-interpolation-filters="sRGB">
<feFlood flood-opacity="0" result="BackgroundImageFix"/>
<feBlend mode="normal" in="SourceGraphic" in2="BackgroundImageFix" result="shape"/>
<feGaussianBlur stdDeviation="0.625" result="effect1_foregroundBlur_7211_1781"/>
</filter>
<filter id="filter11_f_7211_1781" x="5.45898" y="38.1748" width="29.9727" height="33.7168" filterUnits="userSpaceOnUse" color-interpolation-filters="sRGB">
<feFlood flood-opacity="0" result="BackgroundImageFix"/>
<feBlend mode="normal" in="SourceGraphic" in2="BackgroundImageFix" result="shape"/>
<feGaussianBlur stdDeviation="1" result="effect1_foregroundBlur_7211_1781"/>
</filter>
<radialGradient id="paint0_radial_7211_1781" cx="0" cy="0" r="1" gradientUnits="userSpaceOnUse" gradientTransform="translate(36.898 31.042) rotate(92.8775) scale(32.3014 22.6345)">
<stop stop-color="#FFE652"/>
<stop offset="1" stop-color="#FFE652" stop-opacity="0"/>
</radialGradient>
<linearGradient id="paint1_linear_7211_1781" x1="19.5754" y1="42.1443" x2="32.9939" y2="53.4902" gradientUnits="userSpaceOnUse">
<stop stop-color="#FFDE44"/>
<stop offset="1" stop-color="#FFDE44" stop-opacity="0"/>
</linearGradient>
<radialGradient id="paint2_radial_7211_1781" cx="0" cy="0" r="1" gradientUnits="userSpaceOnUse" gradientTransform="translate(8.83593 68.1405) rotate(-11.627) scale(5.23076 5.86665)">
<stop stop-color="#FFEB65"/>
<stop offset="1" stop-color="#FFEB65" stop-opacity="0"/>
</radialGradient>
<linearGradient id="paint3_linear_7211_1781" x1="65.4853" y1="80.0425" x2="80.1889" y2="62.653" gradientUnits="userSpaceOnUse">
<stop stop-color="#FFC734"/>
<stop offset="1" stop-color="#FFB342"/>
</linearGradient>
<linearGradient id="paint4_linear_7211_1781" x1="64.7759" y1="65.6381" x2="69.3679" y2="69.0288" gradientUnits="userSpaceOnUse">
<stop stop-color="#F1910B"/>
<stop offset="1" stop-color="#F1910B" stop-opacity="0"/>
</linearGradient>
<radialGradient id="paint5_radial_7211_1781" cx="0" cy="0" r="1" gradientUnits="userSpaceOnUse" gradientTransform="translate(84.1795 62.3297) rotate(145.33) scale(6.12302 14.3074)">
<stop stop-color="#F5936E"/>
<stop offset="1" stop-color="#F5936E" stop-opacity="0"/>
</radialGradient>
<radialGradient id="paint6_radial_7211_1781" cx="0" cy="0" r="1" gradientUnits="userSpaceOnUse" gradientTransform="translate(60.7096 72.1017) rotate(24.0671) scale(3.56371 6.85777)">
<stop stop-color="#C4811C"/>
<stop offset="1" stop-color="#C4811C" stop-opacity="0"/>
</radialGradient>
<linearGradient id="paint7_linear_7211_1781" x1="51.2203" y1="73.043" x2="70.0377" y2="50.7883" gradientUnits="userSpaceOnUse">
<stop stop-color="#FCC52A"/>
<stop offset="1" stop-color="#F6A218"/>
</linearGradient>
<linearGradient id="paint8_linear_7211_1781" x1="51.2178" y1="58.2476" x2="55.6571" y2="61.568" gradientUnits="userSpaceOnUse">
<stop stop-color="#D6980B"/>
<stop offset="1" stop-color="#D6980B" stop-opacity="0"/>
</linearGradient>
<radialGradient id="paint9_radial_7211_1781" cx="0" cy="0" r="1" gradientUnits="userSpaceOnUse" gradientTransform="translate(69.884 53.0231) rotate(134.481) scale(8.14843 17.4731)">
<stop stop-color="#F5936E"/>
<stop offset="1" stop-color="#F5936E" stop-opacity="0"/>
</radialGradient>
<radialGradient id="paint10_radial_7211_1781" cx="0" cy="0" r="1" gradientUnits="userSpaceOnUse" gradientTransform="translate(47.7538 63.9489) rotate(15.8645) scale(2.40387 4.34608)">
<stop stop-color="#C4811C"/>
<stop offset="1" stop-color="#C4811C" stop-opacity="0"/>
</radialGradient>
<linearGradient id="paint11_linear_7211_1781" x1="48.0924" y1="59.3198" x2="38.0564" y2="50.8339" gradientUnits="userSpaceOnUse">
<stop stop-color="#F5BC28"/>
<stop offset="1" stop-color="#FFE242"/>
</linearGradient>
<radialGradient id="paint12_radial_7211_1781" cx="0" cy="0" r="1" gradientUnits="userSpaceOnUse" gradientTransform="translate(55.0216 64.8859) rotate(-49.784) scale(23.2231 12.5596)">
<stop stop-color="#FFDF64"/>
<stop offset="1" stop-color="#FFDF64" stop-opacity="0"/>
</radialGradient>
<linearGradient id="paint13_linear_7211_1781" x1="36.3772" y1="35.5029" x2="55.1617" y2="31.3161" gradientUnits="userSpaceOnUse">
<stop stop-color="#FFD92A"/>
<stop offset="1" stop-color="#FEB634"/>
</linearGradient>
<radialGradient id="paint14_radial_7211_1781" cx="0" cy="0" r="1" gradientUnits="userSpaceOnUse" gradientTransform="translate(57.4722 33.3511) rotate(-97.7218) scale(14.813 11.3516)">
<stop stop-color="#FA8F57"/>
<stop offset="1" stop-color="#FA8F57" stop-opacity="0"/>
</radialGradient>
<linearGradient id="paint15_linear_7211_1781" x1="59.2474" y1="16.5607" x2="50.9052" y2="26.6045" gradientUnits="userSpaceOnUse">
<stop offset="0.382302" stop-color="#FFB451"/>
<stop offset="1" stop-color="#FFB451" stop-opacity="0"/>
</linearGradient>
<linearGradient id="paint16_linear_7211_1781" x1="45.3655" y1="40.5696" x2="42.2174" y2="26.8181" gradientUnits="userSpaceOnUse">
<stop offset="0.451698" stop-color="#FFE465"/>
<stop offset="1" stop-color="#FFE465" stop-opacity="0"/>
</linearGradient>
</defs>
</svg>
